<?xml version="1.0" encoding="UTF-8"?>
<svg version="1.1" xmlns="http://www.w3.org/2000/svg" width="512" height="512">
<path d="M0 0 C1.19596188 -0.00523668 2.39192376 -0.01047336 3.62412691 -0.01586872 C6.93148309 -0.02825016 10.23862634 -0.03171295 13.54599094 -0.03127182 C17.11812328 -0.0329244 20.69021729 -0.04599934 24.2623291 -0.0574646 C32.06845739 -0.080282 39.87455844 -0.08823206 47.68071556 -0.09329104 C52.56026487 -0.09655261 57.43980633 -0.10307796 62.3193512 -0.11029243 C75.84424332 -0.12985604 89.36912816 -0.14626101 102.89403534 -0.14916897 C103.75899377 -0.14935654 104.6239522 -0.14954411 105.51512149 -0.14973736 C107.26842276 -0.1501036 109.02172403 -0.1504673 110.77502531 -0.15082847 C112.08044235 -0.15110269 112.08044235 -0.15110269 113.41223145 -0.15138245 C114.28357902 -0.151563 115.1549266 -0.15174354 116.05267864 -0.15192956 C130.15859605 -0.15546809 144.26436049 -0.18247137 158.37022489 -0.21988034 C172.87197623 -0.25802953 187.37365182 -0.27732694 201.87545443 -0.27762848 C210.00977379 -0.27821165 218.14391078 -0.28661243 226.27818298 -0.31562614 C233.20745051 -0.34022896 240.13646918 -0.34736346 247.06576866 -0.33237862 C250.59587223 -0.32524516 254.12548532 -0.32591065 257.65553284 -0.34878922 C276.60953628 -0.45016813 291.81632118 -0.14550232 307.09777832 12.27415466 C307.9305127 12.90063904 308.76324707 13.52712341 309.62121582 14.17259216 C318.83258015 21.98917578 324.18478884 33.77164529 327.09777832 45.27415466 C327.35077798 48.63042754 327.35077798 48.63042754 327.35504723 52.19274426 C327.3585533 52.85569174 327.36205938 53.51863923 327.36567169 54.20167604 C327.37494814 56.41490056 327.37007221 58.62785977 327.36520386 60.84109497 C327.36894202 62.44725836 327.37354421 64.05341993 327.3789345 65.65957862 C327.39115951 70.06723051 327.39090462 74.47480647 327.38854575 78.88247144 C327.38813746 83.6385988 327.39917801 88.39470185 327.40866089 93.15081787 C327.42526949 102.46711968 327.43077039 111.78339618 327.43188564 121.09971156 C327.43283625 128.67381662 327.43694719 136.24791334 327.4432869 143.82201576 C327.46089949 165.30151108 327.47012582 186.78098642 327.46862595 208.26048901 C327.46854604 209.41830678 327.46846612 210.57612455 327.46838379 211.76902771 C327.46830203 212.92826124 327.46822027 214.08749476 327.46813603 215.28185657 C327.46732328 234.06506512 327.48645798 252.84819345 327.51466052 271.63137879 C327.54339795 290.92323577 327.55720032 310.21505363 327.55547297 329.50693256 C327.55480933 340.33563646 327.56029013 351.16425629 327.58182907 361.9929409 C327.60005221 371.21364762 327.60437891 380.43423215 327.59081022 389.65494909 C327.58428613 394.35721365 327.5841432 399.05924387 327.60151672 403.76148605 C327.61727731 408.07161286 327.61435346 412.3813201 327.59694846 416.69143686 C327.59388511 418.24526854 327.59748576 419.79913176 327.60866861 421.35292622 C327.71304212 436.89228096 323.70592002 451.86716875 312.91027832 463.59056091 C300.46327641 475.15232347 286.93471921 480.5881185 270.17536926 480.5415802 C268.97729068 480.54611131 267.77921211 480.55064243 266.54482812 480.55531085 C263.23167605 480.56575974 259.91874156 480.56728436 256.60558856 480.56492209 C253.02738248 480.56451307 249.44920849 480.57556128 245.87101746 480.58503723 C238.86480727 480.60163049 231.85863074 480.60714604 224.85240255 480.60826199 C219.1547268 480.60921337 213.45706212 480.61332818 207.75938988 480.61966324 C191.5922959 480.63727202 175.42522844 480.64650282 159.25812481 480.64500229 C158.38705861 480.64492238 157.51599241 480.64484247 156.61853027 480.64476013 C155.74639577 480.64467837 154.87426126 480.64459661 153.97569843 480.64451237 C139.84837755 480.64369984 125.72116338 480.66283005 111.59387336 480.69103687 C97.07518689 480.71979549 82.5565524 480.73357548 68.03783673 480.73184931 C59.89190646 480.73118638 51.74608804 480.73663597 43.60018349 480.75820541 C36.66316732 480.77645659 29.72631368 480.78073246 22.78928385 480.76718657 C19.25354454 480.76067631 15.71811666 480.76046856 12.18240738 480.77789307 C8.33983101 480.79663411 4.49770438 480.78401832 0.65510559 480.76863098 C-1.0012092 480.78406167 -1.0012092 480.78406167 -2.6909849 480.79980409 C-16.23745227 480.68042535 -30.1658863 475.34385559 -40.21862793 466.08665466 C-49.80156491 455.76998933 -57.14231164 442.68992086 -57.15949059 428.35556507 C-57.1647497 427.36114384 -57.1647497 427.36114384 -57.17011505 426.34663329 C-57.17939149 424.13340876 -57.17451557 421.92044955 -57.16964722 419.70721436 C-57.17338538 418.10105097 -57.17798757 416.4948894 -57.18337786 414.8887307 C-57.19560287 410.48107881 -57.19534798 406.07350286 -57.19298911 401.66583788 C-57.19258081 396.90971053 -57.20362137 392.15360747 -57.21310425 387.39749146 C-57.22971285 378.08118964 -57.23521375 368.76491314 -57.236329 359.44859777 C-57.23727961 351.8744927 -57.24139055 344.30039599 -57.24773026 336.72629356 C-57.26534285 315.24679825 -57.27456918 293.76732291 -57.27306931 272.28782032 C-57.27294944 270.55109366 -57.27294944 270.55109366 -57.27282715 268.77928162 C-57.27274539 267.62004809 -57.27266363 266.46081457 -57.27257939 265.26645275 C-57.27176664 246.48324421 -57.29090134 227.70011588 -57.31910388 208.91693053 C-57.34784131 189.62507356 -57.36164368 170.33325569 -57.35991633 151.04137677 C-57.35925269 140.21267286 -57.36473349 129.38405304 -57.38627243 118.55536842 C-57.40449557 109.3346617 -57.40882227 100.11407718 -57.39525358 90.89336023 C-57.38872949 86.19109567 -57.38858655 81.48906545 -57.40596008 76.78682327 C-57.42172067 72.47669646 -57.41879682 68.16698922 -57.40139182 63.85687246 C-57.39832847 62.30304079 -57.40192912 60.74917756 -57.41311197 59.19538311 C-57.51748547 43.65602837 -53.51036338 28.68114057 -42.71472168 16.95774841 C-30.2762239 5.40388517 -16.74873113 -0.0363325 0 0 Z " fill="#D0E6F7" transform="translate(120.9022216796875,15.725845336914063)"/>
<path d="M0 0 C1.19596188 -0.00523668 2.39192376 -0.01047336 3.62412691 -0.01586872 C6.93148309 -0.02825016 10.23862634 -0.03171295 13.54599094 -0.03127182 C17.11812328 -0.0329244 20.69021729 -0.04599934 24.2623291 -0.0574646 C32.06845739 -0.080282 39.87455844 -0.08823206 47.68071556 -0.09329104 C52.56026487 -0.09655261 57.43980633 -0.10307796 62.3193512 -0.11029243 C75.84424332 -0.12985604 89.36912816 -0.14626101 102.89403534 -0.14916897 C103.75899377 -0.14935654 104.6239522 -0.14954411 105.51512149 -0.14973736 C107.26842276 -0.1501036 109.02172403 -0.1504673 110.77502531 -0.15082847 C112.08044235 -0.15110269 112.08044235 -0.15110269 113.41223145 -0.15138245 C114.28357902 -0.151563 115.1549266 -0.15174354 116.05267864 -0.15192956 C130.15859605 -0.15546809 144.26436049 -0.18247137 158.37022489 -0.21988034 C172.87197623 -0.25802953 187.37365182 -0.27732694 201.87545443 -0.27762848 C210.00977379 -0.27821165 218.14391078 -0.28661243 226.27818298 -0.31562614 C233.20745051 -0.34022896 240.13646918 -0.34736346 247.06576866 -0.33237862 C250.59587223 -0.32524516 254.12548532 -0.32591065 257.65553284 -0.34878922 C276.60953628 -0.45016813 291.81632118 -0.14550232 307.09777832 12.27415466 C307.9305127 12.90063904 308.76324707 13.52712341 309.62121582 14.17259216 C318.83258015 21.98917578 324.18478884 33.77164529 327.09777832 45.27415466 C327.35077798 48.63042754 327.35077798 48.63042754 327.35504723 52.19274426 C327.3585533 52.85569174 327.36205938 53.51863923 327.36567169 54.20167604 C327.37494814 56.41490056 327.37007221 58.62785977 327.36520386 60.84109497 C327.36894202 62.44725836 327.37354421 64.05341993 327.3789345 65.65957862 C327.39115951 70.06723051 327.39090462 74.47480647 327.38854575 78.88247144 C327.38813746 83.6385988 327.39917801 88.39470185 327.40866089 93.15081787 C327.42526949 102.46711968 327.43077039 111.78339618 327.43188564 121.09971156 C327.43283625 128.67381662 327.43694719 136.24791334 327.4432869 143.82201576 C327.46089949 165.30151108 327.47012582 186.78098642 327.46862595 208.26048901 C327.46854604 209.41830678 327.46846612 210.57612455 327.46838379 211.76902771 C327.46830203 212.92826124 327.46822027 214.08749476 327.46813603 215.28185657 C327.46732328 234.06506512 327.48645798 252.84819345 327.51466052 271.63137879 C327.54339795 290.92323577 327.55720032 310.21505363 327.55547297 329.50693256 C327.55480933 340.33563646 327.56029013 351.16425629 327.58182907 361.9929409 C327.60005221 371.21364762 327.60437891 380.43423215 327.59081022 389.65494909 C327.58428613 394.35721365 327.5841432 399.05924387 327.60151672 403.76148605 C327.61727731 408.07161286 327.61435346 412.3813201 327.59694846 416.69143686 C327.59388511 418.24526854 327.59748576 419.79913176 327.60866861 421.35292622 C327.71304212 436.89228096 323.70592002 451.86716875 312.91027832 463.59056091 C300.46327641 475.15232347 286.93471921 480.5881185 270.17536926 480.5415802 C268.97729068 480.54611131 267.77921211 480.55064243 266.54482812 480.55531085 C263.23167605 480.56575974 259.91874156 480.56728436 256.60558856 480.56492209 C253.02738248 480.56451307 249.44920849 480.57556128 245.87101746 480.58503723 C238.86480727 480.60163049 231.85863074 480.60714604 224.85240255 480.60826199 C219.1547268 480.60921337 213.45706212 480.61332818 207.75938988 480.61966324 C191.5922959 480.63727202 175.42522844 480.64650282 159.25812481 480.64500229 C158.38705861 480.64492238 157.51599241 480.64484247 156.61853027 480.64476013 C155.74639577 480.64467837 154.87426126 480.64459661 153.97569843 480.64451237 C139.84837755 480.64369984 125.72116338 480.66283005 111.59387336 480.69103687 C97.07518689 480.71979549 82.5565524 480.73357548 68.03783673 480.73184931 C59.89190646 480.73118638 51.74608804 480.73663597 43.60018349 480.75820541 C36.66316732 480.77645659 29.72631368 480.78073246 22.78928385 480.76718657 C19.25354454 480.76067631 15.71811666 480.76046856 12.18240738 480.77789307 C8.33983101 480.79663411 4.49770438 480.78401832 0.65510559 480.76863098 C-1.0012092 480.78406167 -1.0012092 480.78406167 -2.6909849 480.79980409 C-16.23745227 480.68042535 -30.1658863 475.34385559 -40.21862793 466.08665466 C-49.80156491 455.76998933 -57.14231164 442.68992086 -57.15949059 428.35556507 C-57.1647497 427.36114384 -57.1647497 427.36114384 -57.17011505 426.34663329 C-57.17939149 424.13340876 -57.17451557 421.92044955 -57.16964722 419.70721436 C-57.17338538 418.10105097 -57.17798757 416.4948894 -57.18337786 414.8887307 C-57.19560287 410.48107881 -57.19534798 406.07350286 -57.19298911 401.66583788 C-57.19258081 396.90971053 -57.20362137 392.15360747 -57.21310425 387.39749146 C-57.22971285 378.08118964 -57.23521375 368.76491314 -57.236329 359.44859777 C-57.23727961 351.8744927 -57.24139055 344.30039599 -57.24773026 336.72629356 C-57.26534285 315.24679825 -57.27456918 293.76732291 -57.27306931 272.28782032 C-57.27294944 270.55109366 -57.27294944 270.55109366 -57.27282715 268.77928162 C-57.27274539 267.62004809 -57.27266363 266.46081457 -57.27257939 265.26645275 C-57.27176664 246.48324421 -57.29090134 227.70011588 -57.31910388 208.91693053 C-57.34784131 189.62507356 -57.36164368 170.33325569 -57.35991633 151.04137677 C-57.35925269 140.21267286 -57.36473349 129.38405304 -57.38627243 118.55536842 C-57.40449557 109.3346617 -57.40882227 100.11407718 -57.39525358 90.89336023 C-57.38872949 86.19109567 -57.38858655 81.48906545 -57.40596008 76.78682327 C-57.42172067 72.47669646 -57.41879682 68.16698922 -57.40139182 63.85687246 C-57.39832847 62.30304079 -57.40192912 60.74917756 -57.41311197 59.19538311 C-57.51748547 43.65602837 -53.51036338 28.68114057 -42.71472168 16.95774841 C-30.2762239 5.40388517 -16.74873113 -0.0363325 0 0 Z M-33.58972168 32.41868591 C-38.39102756 39.20624631 -41.14925923 46.58888519 -41.15949059 54.92634678 C-41.16299666 55.57264546 -41.16650273 56.21894415 -41.17011505 56.88482764 C-41.17940852 59.04745042 -41.17451113 61.20980269 -41.16964722 63.37243652 C-41.17338454 64.93990102 -41.17798639 66.50736364 -41.18337786 68.07482332 C-41.19561361 72.38019025 -41.1953467 76.68547951 -41.19298911 80.99085987 C-41.19258108 85.63523041 -41.20361896 90.27957601 -41.21310425 94.92393494 C-41.22971951 104.02346984 -41.23521408 113.12297883 -41.236329 122.22252763 C-41.23727944 129.62120948 -41.24138953 137.01988279 -41.24773026 144.41856194 C-41.26534584 165.40086209 -41.27456889 186.38314178 -41.27306931 207.36544938 C-41.27298939 208.49668687 -41.27290948 209.62792436 -41.27282715 210.79344177 C-41.27274539 211.92606296 -41.27266363 213.05868414 -41.27257939 214.22562718 C-41.2717669 232.57173404 -41.29089441 250.91775872 -41.31910388 269.26384182 C-41.34784873 288.10705718 -41.36164322 306.95023248 -41.35991633 325.79347032 C-41.35925287 336.3701518 -41.36472546 346.94674718 -41.38627243 357.52340889 C-41.40450549 366.53111293 -41.40881427 375.53869187 -41.39525358 384.5464064 C-41.38873404 389.13942555 -41.38856989 393.73220485 -41.40596008 398.32520103 C-41.42174137 402.53673404 -41.41877592 406.74783802 -41.40139182 410.95936089 C-41.39833295 412.47622843 -41.401912 413.9931284 -41.41311197 415.50995768 C-41.51106957 429.72761947 -39.14351655 442.67379923 -29.01940918 453.23899841 C-24.75386842 457.19507837 -20.3012384 460.1083894 -14.90222168 462.27415466 C-13.70842156 462.78658864 -13.70842156 462.78658864 -12.49050426 463.30937481 C-7.44715283 464.66537834 -2.63571798 464.55298414 2.56498718 464.53485107 C3.72616493 464.53867662 4.88734268 464.54250217 6.08370763 464.54644364 C9.29841073 464.55496747 12.51296763 464.55454352 15.7276746 464.55026305 C19.19817182 464.54779452 22.66864225 464.55681172 26.13912964 464.56430054 C32.93592748 464.5770474 39.73268581 464.57884113 46.52949359 464.57650027 C52.05653019 464.57471644 57.58355481 464.57646817 63.11058998 464.58072472 C63.89757904 464.58131991 64.6845681 464.58191509 65.49540532 464.58252832 C67.09427807 464.5837401 68.69315083 464.58495423 70.29202358 464.5861707 C85.28638341 464.59704682 100.28072075 464.59488378 115.27508185 464.58878585 C128.97956694 464.58362029 142.68398088 464.59486247 156.3884519 464.61388407 C170.46978622 464.63327838 184.55108691 464.64151544 198.63243467 464.63776082 C206.53408067 464.63585072 214.43566617 464.63831736 222.33730125 464.65247536 C229.06647723 464.66441067 235.79555548 464.66577024 242.52473285 464.65368519 C245.95497717 464.64781067 249.38504293 464.64665707 252.81527519 464.65868759 C256.54223168 464.66916231 260.26871166 464.66104768 263.99565125 464.64837646 C265.06843754 464.65575075 266.14122383 464.66312503 267.24651879 464.67072278 C279.44259155 464.58378489 290.08663336 461.47348284 299.32434082 453.30540466 C307.49719676 444.8570592 311.21121153 434.36750812 311.23479271 422.74221706 C311.23744454 422.09677263 311.24009636 421.45132819 311.24282855 420.78632483 C311.25049608 418.62066785 311.25107974 416.45506782 311.25167847 414.28939819 C311.25569476 412.72208519 311.26013327 411.15477321 311.26495802 409.58746248 C311.27691062 405.27792771 311.28256892 400.96840413 311.28713918 396.65885603 C311.2931002 392.0117651 311.30470874 387.36468751 311.31542969 382.71760559 C311.3399414 371.49373297 311.35457862 360.26985595 311.36748976 349.04596481 C311.37120245 345.87541756 311.37517561 342.70487074 311.37924242 339.53432393 C311.40447864 319.84173694 311.42652969 300.14914924 311.43897057 280.45654964 C311.44190021 275.89615819 311.44486188 271.33576676 311.44787598 266.77537537 C311.44899505 265.07520187 311.44899505 265.07520187 311.45013674 263.34068144 C311.46278947 244.98089032 311.49601235 226.62119607 311.53767781 208.26145022 C311.58011243 189.40810645 311.60366733 170.55481225 311.60889113 151.70142084 C311.61230339 141.11745963 311.62403699 130.53364982 311.65699387 119.94973564 C311.68501642 110.93574792 311.69598396 101.92194265 311.6847984 92.90791475 C311.67961754 88.31091764 311.68246136 83.7143025 311.70726395 79.11736107 C311.72981037 74.90330523 311.7289751 70.68990456 311.71006007 66.47583682 C311.7072676 64.95693126 311.71281656 63.43798075 311.72787301 61.91914725 C311.84848134 48.95271814 309.02233471 38.02991973 300.09777832 28.27415466 C292.63932181 20.71015395 283.46164301 16.28399209 272.7877779 16.01409245 C270.67227098 15.9992383 268.55667019 15.99530455 266.44111633 16 C265.27162262 15.99476332 264.10212891 15.98952664 262.89719599 15.98413128 C259.66388849 15.97175227 256.43071611 15.96828699 253.19738948 15.96872818 C249.70506944 15.96707536 246.21278856 15.95400018 242.7204895 15.9425354 C235.09017688 15.91972227 227.45989213 15.91176878 219.82955003 15.90670896 C215.06125047 15.90344767 210.29295894 15.89692259 205.52466393 15.88970757 C192.3111602 15.87014651 179.09766392 15.85373938 165.88414478 15.85083103 C165.03920495 15.85064346 164.19426511 15.85045589 163.32372103 15.85026264 C161.61097634 15.8498964 159.89823164 15.8495327 158.18548695 15.84917153 C157.33532972 15.84898872 156.4851725 15.8488059 155.60925293 15.84861755 C154.33245262 15.84834673 154.33245262 15.84834673 153.02985837 15.84807044 C139.24200583 15.84452991 125.45430957 15.81751294 111.66651122 15.78011966 C97.4958678 15.74199701 83.32530186 15.72267327 69.15460604 15.72237152 C61.20426317 15.72178784 53.25410677 15.71335392 45.30381203 15.68437386 C38.53329151 15.65980692 31.76302548 15.65261272 24.99247239 15.66762138 C21.54172178 15.67476874 18.09147316 15.67402827 14.6407795 15.65121078 C10.88987131 15.63072935 7.14025123 15.64131681 3.38935852 15.65942383 C2.3123853 15.64622386 1.23541207 15.63302389 0.12580329 15.61942393 C-13.38340154 15.76771012 -25.11844399 21.99072724 -33.58972168 32.41868591 Z " fill="#231F20" transform="translate(120.9022216796875,15.725845336914063)"/>
<path d="M0 0 C1.1318883 -0.00638882 2.2637766 -0.01277764 3.42996454 -0.01936007 C7.23113282 -0.03464739 11.03126511 -0.0141223 14.83239746 0.00622559 C17.55406729 0.00548942 20.27570289 -0.0027349 22.99736023 -0.0105896 C29.62728143 -0.02511944 36.25689652 -0.01287905 42.88678873 0.00852364 C50.60651397 0.03253014 58.32616901 0.03081949 66.04592329 0.02821773 C79.81937542 0.02452708 93.59268328 0.04535711 107.36608887 0.07946777 C120.73298794 0.11255944 134.09973559 0.12672612 147.4666748 0.1204834 C162.02019496 0.11371994 176.57365167 0.11617833 191.12716246 0.1358428 C191.89669472 0.13688229 192.66622698 0.13792177 193.4590784 0.13899276 C195.00466837 0.14108366 196.55025832 0.14319464 198.09584823 0.14532593 C203.47766658 0.15222267 208.85946539 0.15289065 214.24128723 0.15144348 C220.79940402 0.15000402 227.3573973 0.15969 233.9154731 0.18338984 C237.26195974 0.19525318 240.60812892 0.20077178 243.9546566 0.19655228 C247.58089078 0.19285153 251.20659099 0.20753702 254.83276367 0.22705078 C255.89258154 0.22172286 256.95239942 0.21639493 258.04433298 0.21090555 C267.02948544 0.2946446 267.02948544 0.2946446 270.91638184 3.62145996 C272.343042 6.47478028 272.05945876 8.91334269 272.07751465 12.10314941 C272.08247955 12.76840637 272.08744446 13.43366333 272.09255981 14.11907959 C272.10718805 16.32431059 272.1139851 18.52946962 272.11950684 20.73474121 C272.12525851 22.26690167 272.13101624 23.79906212 272.13677979 25.33122253 C272.14729217 28.54670548 272.15313302 31.76216341 272.15661621 34.97766113 C272.16209625 39.09357886 272.18611251 43.20916499 272.21458817 47.32497883 C272.23323435 50.49145973 272.23842123 53.65786116 272.23995209 56.82439232 C272.24297556 58.34142046 272.25099382 59.85844731 272.26413727 61.37542152 C272.28123703 63.50106446 272.27930828 65.62590266 272.27282715 67.75158691 C272.27647278 68.96022903 272.28011841 70.16887115 272.28387451 71.41413879 C271.87890055 74.9485808 271.09579718 76.82965071 268.91638184 79.62145996 C266.03307356 80.58256272 264.22733251 80.74843367 261.23239994 80.75288773 C259.77978955 80.75864944 259.77978955 80.75864944 258.2978335 80.76452756 C256.69834499 80.76322784 256.69834499 80.76322784 255.06654358 80.76190186 C253.37021606 80.76635854 253.37021606 80.76635854 251.63961929 80.77090526 C247.83025476 80.77961341 244.02092157 80.78110228 240.21154785 80.78259277 C237.48856419 80.78668046 234.76558384 80.79222301 232.04260254 80.79763794 C224.63159258 80.81122381 217.22058803 80.81724611 209.80956769 80.8216486 C205.18407339 80.82441005 200.55858119 80.82864718 195.9330883 80.83315277 C183.13149045 80.84534476 170.32989428 80.85564487 157.52829075 80.85902786 C156.70887404 80.85924743 155.88945734 80.85946699 155.04520982 80.85969321 C154.22381537 80.85991149 153.40242091 80.86012977 152.55613571 80.86035466 C150.89163117 80.86079813 149.22712662 80.86124469 147.56262207 80.86169434 C146.73696752 80.86191577 145.91131298 80.8621372 145.0606386 80.86236534 C131.67456343 80.86631548 118.28854263 80.8837764 104.90248848 80.90705386 C91.16594127 80.93074847 77.42942137 80.94322881 63.69285339 80.94439578 C55.97749778 80.9453135 48.26221304 80.95109027 40.54687691 80.96921539 C33.9788304 80.98459076 27.41087666 80.989752 20.84281559 80.98147729 C17.4903708 80.97756185 14.13826547 80.98016471 10.7858181 80.99253464 C7.1547835 81.00515042 3.52423418 80.99943373 -0.10679626 80.98895264 C-1.17089122 80.99700904 -2.23498617 81.00506545 -3.33132643 81.01336598 C-4.3023411 81.00677614 -5.27335577 81.0001863 -6.27379513 80.99339676 C-7.11211028 80.99399385 -7.95042543 80.99459094 -8.81414407 80.99520612 C-11.64792697 80.52852731 -13.00817756 79.58189333 -15.08361816 77.62145996 C-16.21335996 74.23223456 -16.2383146 71.60028437 -16.27648926 68.02624512 C-16.28466675 67.36084213 -16.29284424 66.69543915 -16.30126953 66.00987244 C-16.3260617 63.81009817 -16.34262193 61.61038808 -16.35705566 59.41052246 C-16.36237934 58.65826763 -16.36770302 57.9060128 -16.37318802 57.13096237 C-16.39989046 53.15059173 -16.41927613 49.17025217 -16.43371582 45.18981934 C-16.44706497 41.89754513 -16.47493826 38.6058893 -16.51574707 35.31384277 C-16.56505781 31.33566854 -16.58983425 27.35805588 -16.5969429 23.37958908 C-16.60365477 21.86530804 -16.61887545 20.35103951 -16.64283371 18.83693314 C-16.67448757 16.7157797 -16.67452384 14.59679187 -16.66711426 12.47546387 C-16.67520111 11.26983795 -16.68328796 10.06421204 -16.69161987 8.822052 C-14.9390232 -0.40382166 -7.74225477 -0.09144625 0 0 Z " fill="#FECC00" transform="translate(128.0836181640625,63.3785400390625)"/>
<path d="M0 0 C1.13500443 -0.00953201 2.27000885 -0.01906403 3.43940735 -0.02888489 C4.65718369 -0.02797348 5.87496002 -0.02706207 7.12963867 -0.02612305 C8.39096115 -0.03040817 9.65228363 -0.0346933 10.951828 -0.03910828 C13.6190689 -0.04484836 16.28592246 -0.04629146 18.953125 -0.04101562 C22.35240732 -0.03523436 25.75114239 -0.05212619 29.15033436 -0.0753603 C32.41426439 -0.09373817 35.67816629 -0.08991012 38.94213867 -0.08862305 C40.75969414 -0.10243767 40.75969414 -0.10243767 42.6139679 -0.11653137 C50.97319259 -0.07103584 57.97023876 0.70005798 64.48510742 6.4621582 C65.10901367 6.99196289 65.73291992 7.52176758 66.37573242 8.06762695 C72.66599869 15.53401443 72.81333228 22.3858698 72.75268555 31.79980469 C72.75811413 33.15583037 72.76524091 34.51185015 72.77392578 35.86785889 C72.79207676 39.5312444 72.78512564 43.19417657 72.77240944 46.85756946 C72.76223673 50.70372859 72.77168711 54.54985058 72.7779541 58.39601135 C72.78521902 64.85441 72.77567423 71.31262532 72.7565918 77.77099609 C72.73483437 85.22037381 72.74187064 92.66931335 72.76389742 100.11868042 C72.78209556 106.5317061 72.78458799 112.94460048 72.77414274 119.35764366 C72.76793077 123.18029424 72.76700821 127.00273942 72.7802887 130.82537651 C72.79191089 134.42153629 72.78370691 138.01713573 72.76071167 141.61323547 C72.75296721 143.54969021 72.76472663 145.48619277 72.77722168 147.42262268 C72.69653854 155.79457882 71.53935021 162.27414245 66.12182617 168.83325195 C65.39608398 169.45329102 64.6703418 170.07333008 63.92260742 170.7121582 C63.20459961 171.35024414 62.4865918 171.98833008 61.74682617 172.64575195 C54.81847091 177.13894658 47.12574423 176.59588563 39.14526367 176.6105957 C37.88677109 176.6172525 36.6282785 176.6239093 35.33164978 176.63076782 C32.67635893 176.64087036 30.02147797 176.64645359 27.36621094 176.64526367 C23.98254671 176.64506041 20.59972163 176.67239066 17.21625614 176.70680809 C13.96345776 176.73453237 10.71066407 176.73322872 7.45776367 176.7355957 C5.64961937 176.75715225 5.64961937 176.75715225 3.8049469 176.77914429 C-4.42914007 176.73462212 -9.86485765 175.6794506 -16.22583008 170.1262207 C-16.8574707 169.39145508 -17.48911133 168.65668945 -18.13989258 167.8996582 C-18.78700195 167.17004883 -19.43411133 166.44043945 -20.10083008 165.6887207 C-23.21011768 161.17806405 -24.01437134 156.73332666 -24.03231812 151.32998657 C-24.04511307 149.58060539 -24.04511307 149.58060539 -24.0581665 147.79588318 C-24.05726013 146.53027054 -24.05635376 145.2646579 -24.05541992 143.96069336 C-24.06140966 142.60334404 -24.06821623 141.24599811 -24.07577515 139.88865662 C-24.09339612 136.21295382 -24.09812884 132.53734422 -24.09940672 128.86160326 C-24.10083098 126.56226038 -24.10510576 124.262941 -24.11040115 121.96360397 C-24.12888785 113.93380994 -24.13707339 105.90408219 -24.13549805 97.87426758 C-24.1342967 90.40221916 -24.15540095 82.93045962 -24.18698537 75.45848429 C-24.21317773 69.03195075 -24.22386412 62.6055114 -24.22258723 56.17892492 C-24.2220785 52.34562662 -24.22771194 48.51258525 -24.24894333 44.67934036 C-24.26837618 41.07258605 -24.26841632 37.46633248 -24.25391006 33.85956001 C-24.25083839 31.91451198 -24.26746268 29.96946363 -24.28479004 28.02449036 C-24.22532985 19.71823054 -23.24372319 14.19534387 -17.58129883 7.8137207 C-16.46561523 6.86625977 -16.46561523 6.86625977 -15.32739258 5.8996582 C-14.58618164 5.25254883 -13.8449707 4.60543945 -13.08129883 3.9387207 C-8.83807952 0.89047209 -5.18475865 0.02400509 0 0 Z " fill="#EC1C23" transform="translate(343.764892578125,287.725341796875)"/>
<path d="M0 0 C0.9873392 -0.00583219 1.97467841 -0.01166439 2.99193698 -0.01767331 C4.60777636 -0.01200433 4.60777636 -0.01200433 6.25625896 -0.00622082 C7.40644833 -0.01004636 8.55663769 -0.01387191 9.74168128 -0.01781338 C12.93023112 -0.02634627 16.11863389 -0.02590984 19.30718768 -0.02163279 C22.74765177 -0.01916677 26.18808873 -0.02817826 29.6285429 -0.03567028 C36.36765465 -0.04842339 43.10672657 -0.05021016 49.84584836 -0.04787002 C55.32430769 -0.04608715 60.80275492 -0.04783584 66.28121281 -0.05209446 C67.45070976 -0.05298724 67.45070976 -0.05298724 68.64383292 -0.05389806 C70.2277334 -0.05510982 71.81163388 -0.05632395 73.39553436 -0.05754044 C88.25197685 -0.06841863 103.10839666 -0.06625234 117.96484043 -0.06015559 C131.55178529 -0.05498789 145.13865841 -0.0662375 158.72558907 -0.08525381 C172.67918591 -0.10463344 186.63274882 -0.11288789 200.5863592 -0.10913056 C208.41917829 -0.10721849 216.25193635 -0.10970656 224.08474445 -0.1238451 C230.75401035 -0.13576156 237.42317767 -0.13716095 244.09244493 -0.12505493 C247.49395743 -0.11916767 250.89528965 -0.11806235 254.29679012 -0.13005733 C257.98763011 -0.1404942 261.67798534 -0.13244793 265.36880779 -0.11974621 C266.97460893 -0.13080764 266.97460893 -0.13080764 268.61285049 -0.14209253 C276.46986699 -0.08519535 283.15404104 1.04772046 289.25300884 6.44197559 C290.18886822 7.23668262 290.18886822 7.23668262 291.14363384 8.04744434 C298.12268501 16.33140214 297.5934682 24.88007182 297.53425884 35.12556934 C297.53695786 36.77409563 297.54084368 38.42262036 297.54585552 40.07114124 C297.55173301 43.51660371 297.54324571 46.96164968 297.52449322 50.40706348 C297.50172235 54.80285813 297.5148255 59.19767468 297.53878307 63.59343338 C297.55330413 66.99517525 297.54860606 70.39668896 297.5382719 73.79843807 C297.53562106 75.41820424 297.53881599 77.03799175 297.54819012 78.65773296 C297.59266625 88.50232428 297.43036967 96.89417736 290.88972759 104.81306934 C290.1639854 105.43310841 289.43824322 106.05314747 288.69050884 106.69197559 C287.61349712 107.6491045 287.61349712 107.6491045 286.51472759 108.62556934 C279.9935948 112.85467102 273.02502749 112.54362774 265.50924969 112.52190113 C263.78140237 112.5286978 263.78140237 112.5286978 262.01864904 112.53563178 C258.83462196 112.54607717 255.65073747 112.54760589 252.46669877 112.54524302 C249.02762917 112.5448339 245.58859293 112.55588301 242.14953899 112.56535816 C235.41739018 112.58194702 228.6852764 112.58746671 221.95310885 112.58858292 C216.48041764 112.5895342 211.00773796 112.59364847 205.53505039 112.59998417 C190.01174387 112.61758918 174.48846497 112.62682395 158.9651484 112.62532322 C158.12887525 112.62524331 157.29260211 112.6251634 156.43098736 112.62508106 C155.59369099 112.6249993 154.75639462 112.62491754 153.89372563 112.6248333 C140.31982196 112.62402014 126.74602918 112.64316722 113.17215759 112.6713578 C99.22753642 112.70008947 85.28296934 112.713898 71.33831781 112.71217024 C63.51221177 112.71150654 55.68622206 112.71699043 47.86014271 112.73852634 C41.1982256 112.75674167 34.53647759 112.7610825 27.87454636 112.7475075 C24.47701616 112.74098012 21.07981034 112.7408519 17.68231106 112.758214 C13.9958342 112.77362423 10.31020983 112.76438488 6.62375164 112.74895191 C5.01999687 112.7643826 5.01999687 112.7643826 3.383843 112.78012502 C-4.27914885 112.70921345 -9.64349708 111.18212915 -15.45792866 106.10603809 C-16.08956928 105.37127247 -16.72120991 104.63650684 -17.37199116 103.87947559 C-18.01910053 103.14986622 -18.66620991 102.42025684 -19.33292866 101.66853809 C-22.78980536 96.65363245 -23.25230434 91.7968482 -23.2875185 85.81551075 C-23.29423573 85.09596714 -23.30095295 84.37642353 -23.30787373 83.63507557 C-23.32677435 81.27115829 -23.33077375 78.90752609 -23.33292866 76.54353809 C-23.33936176 74.88975886 -23.3460905 73.23598075 -23.35310078 71.58220387 C-23.36505344 68.12072074 -23.36878364 64.65933727 -23.36759663 61.19783497 C-23.36739347 56.77729509 -23.39470064 52.35739834 -23.42914104 47.93701077 C-23.45145236 44.52248202 -23.45543289 41.10810707 -23.45437717 37.69351292 C-23.45672657 36.06452562 -23.46551261 34.43553366 -23.48104191 32.80661869 C-23.63080073 15.476837 -23.63080073 15.476837 -16.81339741 7.79353809 C-15.69771381 6.84607716 -15.69771381 6.84607716 -14.55949116 5.87947559 C-13.81828022 5.23236622 -13.07706928 4.58525684 -12.31339741 3.91853809 C-8.35540807 1.07519331 -4.85007077 0.00494339 0 0 Z M-6.99699116 21.25447559 C-7.73533026 24.49507407 -7.73533026 24.49507407 -7.61222553 28.07674122 C-7.61777454 28.74243626 -7.62332355 29.40813129 -7.62904072 30.09399891 C-7.64080414 32.28365166 -7.61660024 34.47121919 -7.59074116 36.66072559 C-7.58902904 38.18859736 -7.58909676 39.71647206 -7.59086323 41.24434376 C-7.58921189 44.44218119 -7.57054955 47.63931598 -7.53898335 50.83699512 C-7.49930563 54.92939501 -7.4949391 59.02087524 -7.50244617 63.11343098 C-7.50552043 66.26711371 -7.49337928 69.42059092 -7.4763155 72.57422352 C-7.46930025 74.08284687 -7.46615917 75.59149352 -7.46700764 77.10013294 C-7.46520333 79.21125084 -7.44377008 81.321281 -7.41691303 83.43220997 C-7.40849384 84.63180347 -7.40007465 85.83139698 -7.39140034 87.0673418 C-6.95966172 90.5561266 -6.09053266 92.45727907 -3.99699116 95.25447559 C-1.59852422 96.45370906 -0.11743735 96.381919 2.5611496 96.38590336 C3.52694877 96.3897445 4.49274795 96.39358565 5.48781377 96.39754319 C7.09064837 96.39624347 7.09064837 96.39624347 8.72586346 96.39491749 C9.85518848 96.39788861 10.98451351 96.40085973 12.1480605 96.40392089 C15.95819713 96.41263998 19.76830246 96.41411884 23.5784483 96.41560841 C26.29966195 96.41969464 29.02087226 96.42523776 31.74208355 96.43065357 C39.15321986 96.4442488 46.56435077 96.4502635 53.97549748 96.45466423 C58.6011617 96.45742473 63.22682381 96.46166174 67.85248661 96.4661684 C80.65404186 96.47836278 93.45559543 96.48866166 106.25715637 96.4920435 C107.07685664 96.49226306 107.8965569 96.49248263 108.74109657 96.49270885 C109.97362721 96.49303626 109.97362721 96.49303626 111.23105747 96.49337029 C112.89617082 96.49381376 114.56128417 96.49426033 116.22639751 96.49470997 C117.46533412 96.49504211 117.46533412 96.49504211 118.72929975 96.49538097 C132.11476295 96.49932953 145.50017172 96.51678455 158.8856139 96.54006949 C172.62100426 96.56377075 186.35636731 96.57624479 200.09177846 96.57741141 C207.80662192 96.57832888 215.52139449 96.5840992 223.23621845 96.60223103 C229.80535855 96.61761552 236.37440584 96.6227623 242.94356052 96.61449292 C246.29612223 96.61058042 249.64834468 96.61316971 253.00090885 96.62555027 C256.6338363 96.63818209 260.26627984 96.6324404 263.8992033 96.62196827 C265.49199965 96.63405288 265.49199965 96.63405288 267.1169737 96.64638162 C274.09558793 96.68435855 274.09558793 96.68435855 280.00300884 93.25447559 C281.13678773 89.85313892 281.1438506 87.23043338 281.16414165 83.64339161 C281.16910656 82.97638233 281.17407146 82.30937305 281.17918682 81.62215137 C281.19378169 79.41755101 281.20060522 77.21302256 281.20613384 75.00838184 C281.21188661 73.47525499 281.21764433 71.94212816 281.22340679 70.40900135 C281.23390854 67.1952986 281.2397569 63.98162082 281.24324322 60.76790333 C281.24873242 56.65079542 281.27277274 52.53401749 281.30121517 48.41701317 C281.31983981 45.25057478 281.325047 42.08421601 281.32657909 38.91772747 C281.32960554 37.39987283 281.33763384 35.88201958 281.35076427 34.36421871 C281.36782508 32.24087474 281.36594524 30.11833886 281.35945415 27.99495411 C281.36309978 26.78710758 281.36674541 25.57926105 281.37050152 24.33481312 C280.96980535 20.97616269 280.39181912 19.60885419 278.00300884 17.25447559 C275.12290165 16.29443986 273.31354334 16.12578564 270.32182026 16.1174612 C269.35403003 16.11238666 268.38623981 16.10731212 267.38912261 16.1020838 C266.32347905 16.10158605 265.2578355 16.10108829 264.15989971 16.10057545 C263.02972026 16.09619319 261.89954081 16.09181094 260.7351135 16.08729589 C256.92808869 16.07388491 253.12108703 16.06772391 249.314044 16.0616045 C246.59268189 16.05423295 243.87132465 16.04544195 241.14996624 16.03682423 C232.97018976 16.01230535 224.79040721 15.99767555 216.6106053 15.98476416 C214.30097623 15.9810524 211.99134777 15.97707918 209.6817193 15.97301149 C195.34339559 15.94777949 181.00507094 15.92572354 166.66672993 15.91328335 C163.34588015 15.9103536 160.02503041 15.90739194 156.70418072 15.90437794 C155.87878848 15.90363189 155.05339625 15.90288584 154.20299213 15.90211718 C140.82401927 15.88945614 127.44517908 15.85622233 114.06626828 15.8145761 C100.33536758 15.77218385 86.60453487 15.74859162 72.87356889 15.74336278 C65.16203331 15.73994601 57.45070522 15.72815935 49.73923397 15.69526005 C43.17373894 15.66729575 36.60849394 15.65624423 30.04294397 15.66745551 C26.6921951 15.67265142 23.34239544 15.66698588 19.99165058 15.64498997 C16.36068668 15.62244675 12.73105397 15.6305259 9.10008526 15.64647388 C8.03890315 15.6325918 6.97772104 15.61870971 5.88438189 15.60440695 C-0.09211732 15.66934305 -3.35461106 16.00155023 -6.99699116 21.25447559 Z " fill="#231F20" transform="translate(118.99699115753174,47.745524406433105)"/>
<path d="M0 0 C1.13500443 -0.00953201 2.27000885 -0.01906403 3.43940735 -0.02888489 C4.65718369 -0.02797348 5.87496002 -0.02706207 7.12963867 -0.02612305 C8.39096115 -0.03040817 9.65228363 -0.0346933 10.951828 -0.03910828 C13.6190689 -0.04484836 16.28592246 -0.04629146 18.953125 -0.04101562 C22.35240732 -0.03523436 25.75114239 -0.05212619 29.15033436 -0.0753603 C32.41426439 -0.09373817 35.67816629 -0.08991012 38.94213867 -0.08862305 C40.75969414 -0.10243767 40.75969414 -0.10243767 42.6139679 -0.11653137 C50.97319259 -0.07103584 57.97023876 0.70005798 64.48510742 6.4621582 C65.10901367 6.99196289 65.73291992 7.52176758 66.37573242 8.06762695 C72.66599869 15.53401443 72.81333228 22.3858698 72.75268555 31.79980469 C72.75811413 33.15583037 72.76524091 34.51185015 72.77392578 35.86785889 C72.79207676 39.5312444 72.78512564 43.19417657 72.77240944 46.85756946 C72.76223673 50.70372859 72.77168711 54.54985058 72.7779541 58.39601135 C72.78521902 64.85441 72.77567423 71.31262532 72.7565918 77.77099609 C72.73483437 85.22037381 72.74187064 92.66931335 72.76389742 100.11868042 C72.78209556 106.5317061 72.78458799 112.94460048 72.77414274 119.35764366 C72.76793077 123.18029424 72.76700821 127.00273942 72.7802887 130.82537651 C72.79191089 134.42153629 72.78370691 138.01713573 72.76071167 141.61323547 C72.75296721 143.54969021 72.76472663 145.48619277 72.77722168 147.42262268 C72.69653854 155.79457882 71.53935021 162.27414245 66.12182617 168.83325195 C65.39608398 169.45329102 64.6703418 170.07333008 63.92260742 170.7121582 C63.20459961 171.35024414 62.4865918 171.98833008 61.74682617 172.64575195 C54.81847091 177.13894658 47.12574423 176.59588563 39.14526367 176.6105957 C37.88677109 176.6172525 36.6282785 176.6239093 35.33164978 176.63076782 C32.67635893 176.64087036 30.02147797 176.64645359 27.36621094 176.64526367 C23.98254671 176.64506041 20.59972163 176.67239066 17.21625614 176.70680809 C13.96345776 176.73453237 10.71066407 176.73322872 7.45776367 176.7355957 C5.64961937 176.75715225 5.64961937 176.75715225 3.8049469 176.77914429 C-4.42914007 176.73462212 -9.86485765 175.6794506 -16.22583008 170.1262207 C-16.8574707 169.39145508 -17.48911133 168.65668945 -18.13989258 167.8996582 C-18.78700195 167.17004883 -19.43411133 166.44043945 -20.10083008 165.6887207 C-23.21011768 161.17806405 -24.01437134 156.73332666 -24.03231812 151.32998657 C-24.04511307 149.58060539 -24.04511307 149.58060539 -24.0581665 147.79588318 C-24.05726013 146.53027054 -24.05635376 145.2646579 -24.05541992 143.96069336 C-24.06140966 142.60334404 -24.06821623 141.24599811 -24.07577515 139.88865662 C-24.09339612 136.21295382 -24.09812884 132.53734422 -24.09940672 128.86160326 C-24.10083098 126.56226038 -24.10510576 124.262941 -24.11040115 121.96360397 C-24.12888785 113.93380994 -24.13707339 105.90408219 -24.13549805 97.87426758 C-24.1342967 90.40221916 -24.15540095 82.93045962 -24.18698537 75.45848429 C-24.21317773 69.03195075 -24.22386412 62.6055114 -24.22258723 56.17892492 C-24.2220785 52.34562662 -24.22771194 48.51258525 -24.24894333 44.67934036 C-24.26837618 41.07258605 -24.26841632 37.46633248 -24.25391006 33.85956001 C-24.25083839 31.91451198 -24.26746268 29.96946363 -24.28479004 28.02449036 C-24.22532985 19.71823054 -23.24372319 14.19534387 -17.58129883 7.8137207 C-16.46561523 6.86625977 -16.46561523 6.86625977 -15.32739258 5.8996582 C-14.58618164 5.25254883 -13.8449707 4.60543945 -13.08129883 3.9387207 C-8.83807952 0.89047209 -5.18475865 0.02400509 0 0 Z M-7.76489258 21.2746582 C-8.50364865 25.50475713 -8.42678982 29.68739004 -8.38012695 33.97192383 C-8.38567596 35.26184738 -8.39122498 36.55177094 -8.39694214 37.88078308 C-8.41117252 41.41198684 -8.39414684 44.94241025 -8.37065697 48.47353935 C-8.35052627 52.17209432 -8.35642867 55.87061758 -8.35876465 59.56921387 C-8.3587111 65.77991581 -8.33896866 71.99031329 -8.30688477 78.20092773 C-8.26999282 85.37705236 -8.26120942 92.55277823 -8.26818228 99.72898531 C-8.27449177 106.63763077 -8.26372478 113.54613977 -8.24421692 120.45475769 C-8.23605102 123.39245043 -8.23333187 126.33007335 -8.23490906 129.26777649 C-8.23595276 133.37118593 -8.21175656 137.47407154 -8.18481445 141.57739258 C-8.18774506 142.7952092 -8.19067566 144.01302582 -8.19369507 145.26774597 C-8.18234528 146.38647598 -8.17099548 147.50520599 -8.15930176 148.65783691 C-8.15557304 149.62752159 -8.15184433 150.59720627 -8.14800262 151.59627533 C-7.69217515 154.78303721 -6.64220224 156.68049103 -4.76489258 159.2746582 C-2.26575667 160.52422616 -0.54849082 160.41508124 2.24804688 160.43579102 C3.29285721 160.44539856 4.33766754 160.4550061 5.41413879 160.46490479 C6.54744125 160.46915466 7.68074371 160.47340454 8.84838867 160.4777832 C10.59094185 160.48633331 10.59094185 160.48633331 12.36869812 160.49505615 C14.83091315 160.50451616 17.2931409 160.51104409 19.75537109 160.51489258 C23.52162815 160.5245913 27.28733808 160.55560329 31.0534668 160.5871582 C33.44343751 160.59368875 35.83341213 160.59893902 38.22338867 160.6027832 C39.91423332 160.62130341 39.91423332 160.62130341 41.63923645 160.64019775 C42.69350327 160.63719666 43.74777008 160.63419556 44.83398438 160.63110352 C45.75838821 160.63474915 46.68279205 160.63839478 47.63520813 160.64215088 C50.80822674 160.19364847 52.67947736 159.18738903 55.23510742 157.2746582 C56.25836685 154.20487993 56.36571716 152.10710175 56.37554932 148.89161682 C56.38125946 147.77419098 56.3869696 146.65676514 56.39285278 145.50547791 C56.39397064 144.27889969 56.3950885 143.05232147 56.39624023 141.78857422 C56.40120514 140.49733643 56.40617004 139.20609863 56.4112854 137.87573242 C56.42440064 134.33236658 56.43085235 130.78901968 56.43529606 127.24563336 C56.4382275 125.03227753 56.44233239 122.81892688 56.44680023 120.60557365 C56.46047133 113.68149418 56.47014053 106.75742654 56.47400212 99.83333451 C56.47848553 91.83820858 56.49604805 83.8432534 56.52500272 75.8481794 C56.54660549 69.66891076 56.55670561 63.48969022 56.55804324 57.31038421 C56.55909206 53.6191695 56.56501621 49.92811537 56.58286285 46.23694038 C56.60237561 42.12123335 56.59806023 38.00588483 56.59155273 33.89013672 C56.60076752 32.66558273 56.6099823 31.44102875 56.61947632 30.17936707 C56.61390717 29.0591214 56.60833801 27.93887573 56.6026001 26.78468323 C56.60406666 25.81147912 56.60553322 24.83827501 56.60704422 23.83557987 C56.16745334 20.80883499 55.35057209 19.45823296 53.23510742 17.2746582 C50.25761232 16.28215984 48.22036808 16.12529464 45.10864258 16.08178711 C44.06390778 16.06572418 43.01917297 16.04966125 41.94277954 16.03311157 C37.17499479 15.98863478 32.40734787 15.94761516 27.6394043 15.92456055 C25.12335981 15.90798196 22.60736278 15.88066739 20.09155273 15.8425293 C16.46467651 15.78783604 12.83890266 15.76589898 9.21166992 15.7512207 C8.08757721 15.72855133 6.9634845 15.70588196 5.80532837 15.68252563 C4.75428925 15.68537567 3.70325012 15.68822571 2.62036133 15.69116211 C1.69897369 15.68307526 0.77758606 15.6749884 -0.17172241 15.66665649 C-4.19961722 16.61104763 -5.43303839 17.82527474 -7.76489258 21.2746582 Z " fill="#231F20" transform="translate(343.764892578125,287.725341796875)"/>
<path d="M0 0 C1.13500443 -0.00953201 2.27000885 -0.01906403 3.43940735 -0.02888489 C4.65718369 -0.02797348 5.87496002 -0.02706207 7.12963867 -0.02612305 C8.39096115 -0.03040817 9.65228363 -0.0346933 10.951828 -0.03910828 C13.6190689 -0.04484836 16.28592246 -0.04629146 18.953125 -0.04101562 C22.35240732 -0.03523436 25.75114239 -0.05212619 29.15033436 -0.0753603 C32.41426439 -0.09373817 35.67816629 -0.08991012 38.94213867 -0.08862305 C40.75969414 -0.10243767 40.75969414 -0.10243767 42.6139679 -0.11653137 C50.97319259 -0.07103584 57.97023876 0.70005798 64.48510742 6.4621582 C65.10901367 6.99196289 65.73291992 7.52176758 66.37573242 8.06762695 C71.60264991 14.27184624 72.84033435 20.18748202 72.76635742 28.14575195 C72.77209778 29.52839989 72.77209778 29.52839989 72.7779541 30.9389801 C72.78066172 32.87778829 72.7733816 34.81663372 72.7565918 36.75537109 C72.73519001 39.70079157 72.75641989 42.64376638 72.78198242 45.58911133 C72.77933846 47.48299685 72.77421208 49.37688087 72.76635742 51.27075195 C72.77445435 52.13977646 72.78255127 53.00880096 72.79089355 53.90415955 C72.6811318 61.16776615 70.78658219 67.1855344 66.12182617 72.83325195 C65.03321289 73.76331055 65.03321289 73.76331055 63.92260742 74.7121582 C63.20459961 75.35024414 62.4865918 75.98833008 61.74682617 76.64575195 C54.81847091 81.13894658 47.12574423 80.59588563 39.14526367 80.6105957 C37.88677109 80.6172525 36.6282785 80.6239093 35.33164978 80.63076782 C32.67635893 80.64087036 30.02147797 80.64645359 27.36621094 80.64526367 C23.98254671 80.64506041 20.59972163 80.67239066 17.21625614 80.70680809 C13.96345776 80.73453237 10.71066407 80.73322872 7.45776367 80.7355957 C5.64961937 80.75715225 5.64961937 80.75715225 3.8049469 80.77914429 C-4.42914007 80.73462212 -9.86485765 79.6794506 -16.22583008 74.1262207 C-16.8574707 73.39145508 -17.48911133 72.65668945 -18.13989258 71.8996582 C-18.78700195 71.17004883 -19.43411133 70.44043945 -20.10083008 69.6887207 C-24.02875098 63.99046925 -24.08404443 58.23460877 -24.10083008 51.5637207 C-24.10748688 50.63675385 -24.11414368 49.70978699 -24.1210022 48.75473022 C-24.13109641 46.79980443 -24.13582022 44.84484441 -24.13549805 42.88989258 C-24.13986856 39.91600165 -24.17621504 36.94359923 -24.21411133 33.9699707 C-24.21998089 32.06372574 -24.22394935 30.15747378 -24.22583008 28.2512207 C-24.24020111 27.3707608 -24.25457214 26.4903009 -24.26937866 25.5831604 C-24.21698929 18.42347954 -22.35562125 13.19444186 -17.58129883 7.8137207 C-16.46561523 6.86625977 -16.46561523 6.86625977 -15.32739258 5.8996582 C-14.58618164 5.25254883 -13.8449707 4.60543945 -13.08129883 3.9387207 C-8.83807952 0.89047209 -5.18475865 0.02400509 0 0 Z " fill="#232021" transform="translate(119.764892578125,383.725341796875)"/>
<path d="M0 0 C1.13500443 -0.00953201 2.27000885 -0.01906403 3.43940735 -0.02888489 C4.65718369 -0.02797348 5.87496002 -0.02706207 7.12963867 -0.02612305 C8.39096115 -0.03040817 9.65228363 -0.0346933 10.951828 -0.03910828 C13.6190689 -0.04484836 16.28592246 -0.04629146 18.953125 -0.04101562 C22.35240732 -0.03523436 25.75114239 -0.05212619 29.15033436 -0.0753603 C32.41426439 -0.09373817 35.67816629 -0.08991012 38.94213867 -0.08862305 C40.75969414 -0.10243767 40.75969414 -0.10243767 42.6139679 -0.11653137 C50.97319259 -0.07103584 57.97023876 0.70005798 64.48510742 6.4621582 C65.10901367 6.99196289 65.73291992 7.52176758 66.37573242 8.06762695 C71.60264991 14.27184624 72.84033435 20.18748202 72.76635742 28.14575195 C72.77209778 29.52839989 72.77209778 29.52839989 72.7779541 30.9389801 C72.78066172 32.87778829 72.7733816 34.81663372 72.7565918 36.75537109 C72.73519001 39.70079157 72.75641989 42.64376638 72.78198242 45.58911133 C72.77933846 47.48299685 72.77421208 49.37688087 72.76635742 51.27075195 C72.77445435 52.13977646 72.78255127 53.00880096 72.79089355 53.90415955 C72.6811318 61.16776615 70.78658219 67.1855344 66.12182617 72.83325195 C65.03321289 73.76331055 65.03321289 73.76331055 63.92260742 74.7121582 C63.20459961 75.35024414 62.4865918 75.98833008 61.74682617 76.64575195 C54.81847091 81.13894658 47.12574423 80.59588563 39.14526367 80.6105957 C37.88677109 80.6172525 36.6282785 80.6239093 35.33164978 80.63076782 C32.67635893 80.64087036 30.02147797 80.64645359 27.36621094 80.64526367 C23.98254671 80.64506041 20.59972163 80.67239066 17.21625614 80.70680809 C13.96345776 80.73453237 10.71066407 80.73322872 7.45776367 80.7355957 C5.64961937 80.75715225 5.64961937 80.75715225 3.8049469 80.77914429 C-4.42914007 80.73462212 -9.86485765 79.6794506 -16.22583008 74.1262207 C-16.8574707 73.39145508 -17.48911133 72.65668945 -18.13989258 71.8996582 C-18.78700195 71.17004883 -19.43411133 70.44043945 -20.10083008 69.6887207 C-24.02875098 63.99046925 -24.08404443 58.23460877 -24.10083008 51.5637207 C-24.10748688 50.63675385 -24.11414368 49.70978699 -24.1210022 48.75473022 C-24.13109641 46.79980443 -24.13582022 44.84484441 -24.13549805 42.88989258 C-24.13986856 39.91600165 -24.17621504 36.94359923 -24.21411133 33.9699707 C-24.21998089 32.06372574 -24.22394935 30.15747378 -24.22583008 28.2512207 C-24.24020111 27.3707608 -24.25457214 26.4903009 -24.26937866 25.5831604 C-24.21698929 18.42347954 -22.35562125 13.19444186 -17.58129883 7.8137207 C-16.46561523 6.86625977 -16.46561523 6.86625977 -15.32739258 5.8996582 C-14.58618164 5.25254883 -13.8449707 4.60543945 -13.08129883 3.9387207 C-8.83807952 0.89047209 -5.18475865 0.02400509 0 0 Z " fill="#232021" transform="translate(231.764892578125,287.725341796875)"/>
<path d="M0 0 C1.13500443 -0.00953201 2.27000885 -0.01906403 3.43940735 -0.02888489 C4.65718369 -0.02797348 5.87496002 -0.02706207 7.12963867 -0.02612305 C8.39096115 -0.03040817 9.65228363 -0.0346933 10.951828 -0.03910828 C13.6190689 -0.04484836 16.28592246 -0.04629146 18.953125 -0.04101562 C22.35240732 -0.03523436 25.75114239 -0.05212619 29.15033436 -0.0753603 C32.41426439 -0.09373817 35.67816629 -0.08991012 38.94213867 -0.08862305 C40.75969414 -0.10243767 40.75969414 -0.10243767 42.6139679 -0.11653137 C50.97319259 -0.07103584 57.97023876 0.70005798 64.48510742 6.4621582 C65.10901367 6.99196289 65.73291992 7.52176758 66.37573242 8.06762695 C71.60264991 14.27184624 72.84033435 20.18748202 72.76635742 28.14575195 C72.77209778 29.52839989 72.77209778 29.52839989 72.7779541 30.9389801 C72.78066172 32.87778829 72.7733816 34.81663372 72.7565918 36.75537109 C72.73519001 39.70079157 72.75641989 42.64376638 72.78198242 45.58911133 C72.77933846 47.48299685 72.77421208 49.37688087 72.76635742 51.27075195 C72.77445435 52.13977646 72.78255127 53.00880096 72.79089355 53.90415955 C72.6811318 61.16776615 70.78658219 67.1855344 66.12182617 72.83325195 C65.03321289 73.76331055 65.03321289 73.76331055 63.92260742 74.7121582 C63.20459961 75.35024414 62.4865918 75.98833008 61.74682617 76.64575195 C54.81847091 81.13894658 47.12574423 80.59588563 39.14526367 80.6105957 C37.88677109 80.6172525 36.6282785 80.6239093 35.33164978 80.63076782 C32.67635893 80.64087036 30.02147797 80.64645359 27.36621094 80.64526367 C23.98254671 80.64506041 20.59972163 80.67239066 17.21625614 80.70680809 C13.96345776 80.73453237 10.71066407 80.73322872 7.45776367 80.7355957 C5.64961937 80.75715225 5.64961937 80.75715225 3.8049469 80.77914429 C-4.42914007 80.73462212 -9.86485765 79.6794506 -16.22583008 74.1262207 C-16.8574707 73.39145508 -17.48911133 72.65668945 -18.13989258 71.8996582 C-18.78700195 71.17004883 -19.43411133 70.44043945 -20.10083008 69.6887207 C-24.02875098 63.99046925 -24.08404443 58.23460877 -24.10083008 51.5637207 C-24.10748688 50.63675385 -24.11414368 49.70978699 -24.1210022 48.75473022 C-24.13109641 46.79980443 -24.13582022 44.84484441 -24.13549805 42.88989258 C-24.13986856 39.91600165 -24.17621504 36.94359923 -24.21411133 33.9699707 C-24.21998089 32.06372574 -24.22394935 30.15747378 -24.22583008 28.2512207 C-24.24020111 27.3707608 -24.25457214 26.4903009 -24.26937866 25.5831604 C-24.21698929 18.42347954 -22.35562125 13.19444186 -17.58129883 7.8137207 C-16.46561523 6.86625977 -16.46561523 6.86625977 -15.32739258 5.8996582 C-14.58618164 5.25254883 -13.8449707 4.60543945 -13.08129883 3.9387207 C-8.83807952 0.89047209 -5.18475865 0.02400509 0 0 Z " fill="#232021" transform="translate(119.764892578125,287.725341796875)"/>
<path d="M0 0 C1.13500443 -0.00953201 2.27000885 -0.01906403 3.43940735 -0.02888489 C4.65718369 -0.02797348 5.87496002 -0.02706207 7.12963867 -0.02612305 C8.39096115 -0.03040817 9.65228363 -0.0346933 10.951828 -0.03910828 C13.6190689 -0.04484836 16.28592246 -0.04629146 18.953125 -0.04101562 C22.35240732 -0.03523436 25.75114239 -0.05212619 29.15033436 -0.0753603 C32.41426439 -0.09373817 35.67816629 -0.08991012 38.94213867 -0.08862305 C40.75969414 -0.10243767 40.75969414 -0.10243767 42.6139679 -0.11653137 C50.97319259 -0.07103584 57.97023876 0.70005798 64.48510742 6.4621582 C65.10901367 6.99196289 65.73291992 7.52176758 66.37573242 8.06762695 C71.60264991 14.27184624 72.84033435 20.18748202 72.76635742 28.14575195 C72.77209778 29.52839989 72.77209778 29.52839989 72.7779541 30.9389801 C72.78066172 32.87778829 72.7733816 34.81663372 72.7565918 36.75537109 C72.73519001 39.70079157 72.75641989 42.64376638 72.78198242 45.58911133 C72.77933846 47.48299685 72.77421208 49.37688087 72.76635742 51.27075195 C72.77445435 52.13977646 72.78255127 53.00880096 72.79089355 53.90415955 C72.6811318 61.16776615 70.78658219 67.1855344 66.12182617 72.83325195 C65.03321289 73.76331055 65.03321289 73.76331055 63.92260742 74.7121582 C63.20459961 75.35024414 62.4865918 75.98833008 61.74682617 76.64575195 C54.81847091 81.13894658 47.12574423 80.59588563 39.14526367 80.6105957 C37.88677109 80.6172525 36.6282785 80.6239093 35.33164978 80.63076782 C32.67635893 80.64087036 30.02147797 80.64645359 27.36621094 80.64526367 C23.98254671 80.64506041 20.59972163 80.67239066 17.21625614 80.70680809 C13.96345776 80.73453237 10.71066407 80.73322872 7.45776367 80.7355957 C5.64961937 80.75715225 5.64961937 80.75715225 3.8049469 80.77914429 C-4.42914007 80.73462212 -9.86485765 79.6794506 -16.22583008 74.1262207 C-16.8574707 73.39145508 -17.48911133 72.65668945 -18.13989258 71.8996582 C-18.78700195 71.17004883 -19.43411133 70.44043945 -20.10083008 69.6887207 C-24.02875098 63.99046925 -24.08404443 58.23460877 -24.10083008 51.5637207 C-24.10748688 50.63675385 -24.11414368 49.70978699 -24.1210022 48.75473022 C-24.13109641 46.79980443 -24.13582022 44.84484441 -24.13549805 42.88989258 C-24.13986856 39.91600165 -24.17621504 36.94359923 -24.21411133 33.9699707 C-24.21998089 32.06372574 -24.22394935 30.15747378 -24.22583008 28.2512207 C-24.24020111 27.3707608 -24.25457214 26.4903009 -24.26937866 25.5831604 C-24.21698929 18.42347954 -22.35562125 13.19444186 -17.58129883 7.8137207 C-16.46561523 6.86625977 -16.46561523 6.86625977 -15.32739258 5.8996582 C-14.58618164 5.25254883 -13.8449707 4.60543945 -13.08129883 3.9387207 C-8.83807952 0.89047209 -5.18475865 0.02400509 0 0 Z " fill="#232021" transform="translate(343.764892578125,191.725341796875)"/>
<path d="M0 0 C1.13500443 -0.00953201 2.27000885 -0.01906403 3.43940735 -0.02888489 C4.65718369 -0.02797348 5.87496002 -0.02706207 7.12963867 -0.02612305 C8.39096115 -0.03040817 9.65228363 -0.0346933 10.951828 -0.03910828 C13.6190689 -0.04484836 16.28592246 -0.04629146 18.953125 -0.04101562 C22.35240732 -0.03523436 25.75114239 -0.05212619 29.15033436 -0.0753603 C32.41426439 -0.09373817 35.67816629 -0.08991012 38.94213867 -0.08862305 C40.75969414 -0.10243767 40.75969414 -0.10243767 42.6139679 -0.11653137 C50.97319259 -0.07103584 57.97023876 0.70005798 64.48510742 6.4621582 C65.10901367 6.99196289 65.73291992 7.52176758 66.37573242 8.06762695 C71.60264991 14.27184624 72.84033435 20.18748202 72.76635742 28.14575195 C72.77209778 29.52839989 72.77209778 29.52839989 72.7779541 30.9389801 C72.78066172 32.87778829 72.7733816 34.81663372 72.7565918 36.75537109 C72.73519001 39.70079157 72.75641989 42.64376638 72.78198242 45.58911133 C72.77933846 47.48299685 72.77421208 49.37688087 72.76635742 51.27075195 C72.77445435 52.13977646 72.78255127 53.00880096 72.79089355 53.90415955 C72.6811318 61.16776615 70.78658219 67.1855344 66.12182617 72.83325195 C65.03321289 73.76331055 65.03321289 73.76331055 63.92260742 74.7121582 C63.20459961 75.35024414 62.4865918 75.98833008 61.74682617 76.64575195 C54.81847091 81.13894658 47.12574423 80.59588563 39.14526367 80.6105957 C37.88677109 80.6172525 36.6282785 80.6239093 35.33164978 80.63076782 C32.67635893 80.64087036 30.02147797 80.64645359 27.36621094 80.64526367 C23.98254671 80.64506041 20.59972163 80.67239066 17.21625614 80.70680809 C13.96345776 80.73453237 10.71066407 80.73322872 7.45776367 80.7355957 C5.64961937 80.75715225 5.64961937 80.75715225 3.8049469 80.77914429 C-4.42914007 80.73462212 -9.86485765 79.6794506 -16.22583008 74.1262207 C-16.8574707 73.39145508 -17.48911133 72.65668945 -18.13989258 71.8996582 C-18.78700195 71.17004883 -19.43411133 70.44043945 -20.10083008 69.6887207 C-24.02875098 63.99046925 -24.08404443 58.23460877 -24.10083008 51.5637207 C-24.10748688 50.63675385 -24.11414368 49.70978699 -24.1210022 48.75473022 C-24.13109641 46.79980443 -24.13582022 44.84484441 -24.13549805 42.88989258 C-24.13986856 39.91600165 -24.17621504 36.94359923 -24.21411133 33.9699707 C-24.21998089 32.06372574 -24.22394935 30.15747378 -24.22583008 28.2512207 C-24.24020111 27.3707608 -24.25457214 26.4903009 -24.26937866 25.5831604 C-24.21698929 18.42347954 -22.35562125 13.19444186 -17.58129883 7.8137207 C-16.46561523 6.86625977 -16.46561523 6.86625977 -15.32739258 5.8996582 C-14.58618164 5.25254883 -13.8449707 4.60543945 -13.08129883 3.9387207 C-8.83807952 0.89047209 -5.18475865 0.02400509 0 0 Z " fill="#232021" transform="translate(231.764892578125,191.725341796875)"/>
<path d="M0 0 C1.13500443 -0.00953201 2.27000885 -0.01906403 3.43940735 -0.02888489 C4.65718369 -0.02797348 5.87496002 -0.02706207 7.12963867 -0.02612305 C8.39096115 -0.03040817 9.65228363 -0.0346933 10.951828 -0.03910828 C13.6190689 -0.04484836 16.28592246 -0.04629146 18.953125 -0.04101562 C22.35240732 -0.03523436 25.75114239 -0.05212619 29.15033436 -0.0753603 C32.41426439 -0.09373817 35.67816629 -0.08991012 38.94213867 -0.08862305 C40.75969414 -0.10243767 40.75969414 -0.10243767 42.6139679 -0.11653137 C50.97319259 -0.07103584 57.97023876 0.70005798 64.48510742 6.4621582 C65.10901367 6.99196289 65.73291992 7.52176758 66.37573242 8.06762695 C71.60264991 14.27184624 72.84033435 20.18748202 72.76635742 28.14575195 C72.77209778 29.52839989 72.77209778 29.52839989 72.7779541 30.9389801 C72.78066172 32.87778829 72.7733816 34.81663372 72.7565918 36.75537109 C72.73519001 39.70079157 72.75641989 42.64376638 72.78198242 45.58911133 C72.77933846 47.48299685 72.77421208 49.37688087 72.76635742 51.27075195 C72.77445435 52.13977646 72.78255127 53.00880096 72.79089355 53.90415955 C72.6811318 61.16776615 70.78658219 67.1855344 66.12182617 72.83325195 C65.03321289 73.76331055 65.03321289 73.76331055 63.92260742 74.7121582 C63.20459961 75.35024414 62.4865918 75.98833008 61.74682617 76.64575195 C54.81847091 81.13894658 47.12574423 80.59588563 39.14526367 80.6105957 C37.88677109 80.6172525 36.6282785 80.6239093 35.33164978 80.63076782 C32.67635893 80.64087036 30.02147797 80.64645359 27.36621094 80.64526367 C23.98254671 80.64506041 20.59972163 80.67239066 17.21625614 80.70680809 C13.96345776 80.73453237 10.71066407 80.73322872 7.45776367 80.7355957 C5.64961937 80.75715225 5.64961937 80.75715225 3.8049469 80.77914429 C-4.42914007 80.73462212 -9.86485765 79.6794506 -16.22583008 74.1262207 C-16.8574707 73.39145508 -17.48911133 72.65668945 -18.13989258 71.8996582 C-18.78700195 71.17004883 -19.43411133 70.44043945 -20.10083008 69.6887207 C-24.02875098 63.99046925 -24.08404443 58.23460877 -24.10083008 51.5637207 C-24.10748688 50.63675385 -24.11414368 49.70978699 -24.1210022 48.75473022 C-24.13109641 46.79980443 -24.13582022 44.84484441 -24.13549805 42.88989258 C-24.13986856 39.91600165 -24.17621504 36.94359923 -24.21411133 33.9699707 C-24.21998089 32.06372574 -24.22394935 30.15747378 -24.22583008 28.2512207 C-24.24020111 27.3707608 -24.25457214 26.4903009 -24.26937866 25.5831604 C-24.21698929 18.42347954 -22.35562125 13.19444186 -17.58129883 7.8137207 C-16.46561523 6.86625977 -16.46561523 6.86625977 -15.32739258 5.8996582 C-14.58618164 5.25254883 -13.8449707 4.60543945 -13.08129883 3.9387207 C-8.83807952 0.89047209 -5.18475865 0.02400509 0 0 Z " fill="#232021" transform="translate(119.764892578125,191.725341796875)"/>
<path d="M0 0 C1.13500443 -0.00953201 2.27000885 -0.01906403 3.43940735 -0.02888489 C4.65718369 -0.02797348 5.87496002 -0.02706207 7.12963867 -0.02612305 C8.39096115 -0.03040817 9.65228363 -0.0346933 10.951828 -0.03910828 C13.6190689 -0.04484836 16.28592246 -0.04629146 18.953125 -0.04101562 C22.35240732 -0.03523436 25.75114239 -0.05212619 29.15033436 -0.0753603 C32.41426439 -0.09373817 35.67816629 -0.08991012 38.94213867 -0.08862305 C40.75969414 -0.10243767 40.75969414 -0.10243767 42.6139679 -0.11653137 C50.97319259 -0.07103584 57.97023876 0.70005798 64.48510742 6.4621582 C65.10901367 6.99196289 65.73291992 7.52176758 66.37573242 8.06762695 C71.48317 14.1300266 72.83692361 19.92255966 72.73120117 27.70825195 C72.7326564 28.58562515 72.73411163 29.46299835 72.73561096 30.36695862 C72.73396041 32.21163269 72.7224944 34.05632175 72.70166016 35.90087891 C72.6727206 38.70120699 72.68106662 41.4996354 72.6940918 44.30004883 C72.68785234 46.10279227 72.67945977 47.90552981 72.66870117 49.70825195 C72.67163681 50.5335289 72.67457245 51.35880585 72.67759705 52.20909119 C72.53500275 61.13909406 70.22179969 68.08743518 64.07104492 74.61450195 C58.89673087 79.29340295 53.31870775 80.38518369 46.58374023 80.45166016 C45.44866028 80.46449539 44.31358032 80.47733063 43.144104 80.49055481 C41.92116638 80.49794174 40.69822876 80.50532867 39.43823242 80.51293945 C38.175495 80.5210112 36.91275757 80.52908295 35.61175537 80.53739929 C32.9386428 80.55123 30.2656531 80.56224914 27.5925293 80.56982422 C24.18528774 80.58086893 20.77870278 80.61525694 17.37169266 80.65499592 C14.1022718 80.68758783 10.83279094 80.69195138 7.56323242 80.70043945 C6.34839172 80.71794754 5.13355103 80.73545563 3.88189697 80.75349426 C-4.39559518 80.73239415 -9.83113401 79.70889187 -16.22583008 74.1262207 C-16.8574707 73.39145508 -17.48911133 72.65668945 -18.13989258 71.8996582 C-18.78700195 71.17004883 -19.43411133 70.44043945 -20.10083008 69.6887207 C-24.02875098 63.99046925 -24.08404443 58.23460877 -24.10083008 51.5637207 C-24.10748688 50.63675385 -24.11414368 49.70978699 -24.1210022 48.75473022 C-24.13109641 46.79980443 -24.13582022 44.84484441 -24.13549805 42.88989258 C-24.13986856 39.91600165 -24.17621504 36.94359923 -24.21411133 33.9699707 C-24.21998089 32.06372574 -24.22394935 30.15747378 -24.22583008 28.2512207 C-24.24020111 27.3707608 -24.25457214 26.4903009 -24.26937866 25.5831604 C-24.21698929 18.42347954 -22.35562125 13.19444186 -17.58129883 7.8137207 C-16.46561523 6.86625977 -16.46561523 6.86625977 -15.32739258 5.8996582 C-14.58618164 5.25254883 -13.8449707 4.60543945 -13.08129883 3.9387207 C-8.83807952 0.89047209 -5.18475865 0.02400509 0 0 Z " fill="#231F21" transform="translate(231.764892578125,383.725341796875)"/>
<path d="M0 0 C0.33 0 0.66 0 1 0 C1.09365465 19.7241597 1.16408241 39.44827395 1.20724869 59.17261028 C1.22782887 68.33202763 1.25586203 77.4913064 1.30175781 86.65063477 C1.34176531 94.63869332 1.3674658 102.62665146 1.37635398 110.61480743 C1.3815453 114.84017585 1.3936507 119.06525714 1.42292023 123.29053307 C1.45030992 127.27718748 1.45839812 131.26343971 1.45243073 135.25017929 C1.45352054 136.70410545 1.46133322 138.15804673 1.4768219 139.61189079 C1.61971352 153.73110146 -0.86171232 166.50713962 -10.8828125 176.96484375 C-22.89892918 188.10920294 -36.34404833 188.29500983 -51.91235352 188.22705078 C-53.7264658 188.22648601 -55.54057854 188.22680451 -57.35469055 188.22793579 C-62.25900031 188.22850774 -67.16321151 188.21677894 -72.06749845 188.20278788 C-77.20042494 188.19025424 -82.3333539 188.18910794 -87.46629333 188.18673706 C-97.17707355 188.18053002 -106.88780853 188.16412971 -116.59856886 188.14403808 C-127.65781111 188.12165491 -138.71705557 188.11067957 -149.77631485 188.10064721 C-172.51756828 188.0797628 -195.2587816 188.04460193 -218 188 C-218 187.67 -218 187.34 -218 187 C-217.04867187 186.82726562 -216.09734375 186.65453125 -215.1171875 186.4765625 C-204.47574535 184.39018386 -194.26231979 181.269542 -184 177.8125 C-182.98434967 177.47076752 -182.98434967 177.47076752 -181.94818115 177.12213135 C-174.84450458 174.87595557 -174.84450458 174.87595557 -168 172 C-166.50028068 171.88335918 -164.99608957 171.82133762 -163.4921875 171.7890625 C-162.58726562 171.76070312 -161.68234375 171.73234375 -160.75 171.703125 C-158.8569521 171.65168348 -156.96369931 171.60723091 -155.0703125 171.5703125 C-146.50919479 171.28010512 -139.90435569 169.52829658 -133.47265625 163.609375 C-130.10609204 159.93026504 -128.71437188 155.85772877 -128 151 C-127.67 151.66 -127.34 152.32 -127 153 C-125.92878906 152.3503125 -124.85757813 151.700625 -123.75390625 151.03125 C-122.35684044 150.18738475 -120.95970124 149.343641 -119.5625 148.5 C-118.85544922 148.07074219 -118.14839844 147.64148438 -117.41992188 147.19921875 C-112.11328125 144 -112.11328125 144 -111 144 C-110.90203125 144.78503906 -110.8040625 145.57007813 -110.703125 146.37890625 C-109.35864869 155.82501138 -107.27049427 161.47858374 -99.87890625 167.73828125 C-95.78204555 170.48939561 -92.12387792 171.25202352 -87.23510742 171.2746582 C-86.100103 171.28419022 -84.96509857 171.29372223 -83.79570007 171.30354309 C-82.57792374 171.30263168 -81.3601474 171.30172028 -80.10546875 171.30078125 C-78.21348503 171.30720894 -78.21348503 171.30720894 -76.28327942 171.31376648 C-73.61603852 171.31950656 -70.94918496 171.32094966 -68.28198242 171.31567383 C-64.8827001 171.30989256 -61.48396504 171.32678439 -58.08477306 171.3500185 C-54.82084303 171.36839638 -51.55694114 171.36456832 -48.29296875 171.36328125 C-47.08126511 171.372491 -45.86956146 171.38170074 -44.62113953 171.39118958 C-35.70266523 171.3426503 -28.33651999 170.24562294 -21.66248798 163.85486984 C-15.94130716 157.47163828 -15.43981125 150.04773363 -15.59692383 141.84667969 C-15.60104279 140.76719055 -15.60516174 139.68770142 -15.60940552 138.57550049 C-15.62012161 136.24293428 -15.63960194 133.91039504 -15.66697121 131.57796478 C-15.7076404 127.86628034 -15.71880065 124.15556013 -15.72160339 120.44366455 C-15.73331521 109.89396641 -15.78520862 99.34508854 -15.88647461 88.79589844 C-15.9464875 82.32722559 -15.96163023 75.85964646 -15.9503231 69.39072418 C-15.9547325 66.94625282 -15.97563852 64.50174537 -16.01450539 62.05757904 C-16.26102491 46.25233775 -14.30681101 34.49413639 -7.11667442 20.37242889 C-5.18810594 16.27509176 -3.81692149 11.99465928 -2.4375 7.6875 C-2.06269013 6.52575193 -2.06269013 6.52575193 -1.68030834 5.34053421 C-1.11228997 3.56286601 -0.55478603 1.78184218 0 0 Z " fill="#9AC8FE" transform="translate(431,292)"/>
<path d="M0 0 C1.73618591 -0.00006042 1.73618591 -0.00006042 3.50744629 -0.00012207 C5.95179684 0.00523347 8.39614694 0.02281732 10.84033203 0.05175781 C14.58028833 0.09359939 18.31844293 0.09282635 22.05859375 0.0859375 C24.43490834 0.09643055 26.81121365 0.10936926 29.1875 0.125 C30.3053186 0.12520142 31.42313721 0.12540283 32.5748291 0.12561035 C34.14170471 0.14947815 34.14170471 0.14947815 35.74023438 0.17382812 C37.11326721 0.18645691 37.11326721 0.18645691 38.51403809 0.19934082 C41.63433226 0.676399 43.54257635 1.76301627 46.09375 3.59375 C47.68381531 6.77388063 47.27792077 10.21345657 47.296875 13.70703125 C47.30257507 14.51359665 47.30827515 15.32016205 47.31414795 16.15116882 C47.32360195 17.86012458 47.33013352 19.5690986 47.33398438 21.27807617 C47.3436732 23.88558041 47.374685 26.49229078 47.40625 29.09960938 C47.41278185 30.76041199 47.41803161 32.42122024 47.421875 34.08203125 C47.4342218 34.85928055 47.4465686 35.63652985 47.45928955 36.43733215 C47.44069428 40.98490483 47.01725081 44.03271364 44.09375 47.59375 C41.10007982 48.59164006 39.07986991 48.731735 35.95141602 48.75488281 C34.90345352 48.76449036 33.85549103 48.7740979 32.77577209 48.78399658 C31.64449387 48.78824646 30.51321564 48.79249634 29.34765625 48.796875 C28.18499741 48.80257507 27.02233856 48.80827515 25.82444763 48.81414795 C23.36401276 48.8235985 20.90356524 48.83013215 18.44311523 48.83398438 C14.67474403 48.84370231 10.90691532 48.87473101 7.13867188 48.90625 C4.75000324 48.9127788 2.36133071 48.91802975 -0.02734375 48.921875 C-1.15659775 48.9342218 -2.28585175 48.9465686 -3.44932556 48.95928955 C-4.50044022 48.95628845 -5.55155487 48.95328735 -6.63452148 48.95019531 C-8.01993385 48.95566376 -8.01993385 48.95566376 -9.43333435 48.96124268 C-12.40517716 48.51960591 -13.75266834 47.66308457 -15.90625 45.59375 C-17.86446954 39.71909137 -17.21331286 32.99842829 -17.25634766 26.83398438 C-17.27291642 25.09393955 -17.30021889 23.35396305 -17.33837891 21.61425781 C-17.39321881 19.09925214 -17.4150286 16.58583593 -17.4296875 14.0703125 C-17.45235687 13.29620026 -17.47502625 12.52208801 -17.49838257 11.72451782 C-17.48406999 8.05498437 -17.00714902 5.76257613 -15.11767578 2.60107422 C-10.21466924 -0.46358443 -5.67128568 -0.08318185 0 0 Z " fill="#006CEF" transform="translate(240.90625,399.40625)"/>
<path d="M0 0 C1.73618591 -0.00006042 1.73618591 -0.00006042 3.50744629 -0.00012207 C5.95179684 0.00523347 8.39614694 0.02281732 10.84033203 0.05175781 C14.58028833 0.09359939 18.31844293 0.09282635 22.05859375 0.0859375 C24.43490834 0.09643055 26.81121365 0.10936926 29.1875 0.125 C30.3053186 0.12520142 31.42313721 0.12540283 32.5748291 0.12561035 C34.14170471 0.14947815 34.14170471 0.14947815 35.74023438 0.17382812 C37.11326721 0.18645691 37.11326721 0.18645691 38.51403809 0.19934082 C41.63433226 0.676399 43.54257635 1.76301627 46.09375 3.59375 C47.68381531 6.77388063 47.27792077 10.21345657 47.296875 13.70703125 C47.30257507 14.51359665 47.30827515 15.32016205 47.31414795 16.15116882 C47.32360195 17.86012458 47.33013352 19.5690986 47.33398438 21.27807617 C47.3436732 23.88558041 47.374685 26.49229078 47.40625 29.09960938 C47.41278185 30.76041199 47.41803161 32.42122024 47.421875 34.08203125 C47.4342218 34.85928055 47.4465686 35.63652985 47.45928955 36.43733215 C47.44069428 40.98490483 47.01725081 44.03271364 44.09375 47.59375 C41.10007982 48.59164006 39.07986991 48.731735 35.95141602 48.75488281 C34.90345352 48.76449036 33.85549103 48.7740979 32.77577209 48.78399658 C31.64449387 48.78824646 30.51321564 48.79249634 29.34765625 48.796875 C28.18499741 48.80257507 27.02233856 48.80827515 25.82444763 48.81414795 C23.36401276 48.8235985 20.90356524 48.83013215 18.44311523 48.83398438 C14.67474403 48.84370231 10.90691532 48.87473101 7.13867188 48.90625 C4.75000324 48.9127788 2.36133071 48.91802975 -0.02734375 48.921875 C-1.15659775 48.9342218 -2.28585175 48.9465686 -3.44932556 48.95928955 C-4.50044022 48.95628845 -5.55155487 48.95328735 -6.63452148 48.95019531 C-8.01993385 48.95566376 -8.01993385 48.95566376 -9.43333435 48.96124268 C-12.40517716 48.51960591 -13.75266834 47.66308457 -15.90625 45.59375 C-17.86446954 39.71909137 -17.21331286 32.99842829 -17.25634766 26.83398438 C-17.27291642 25.09393955 -17.30021889 23.35396305 -17.33837891 21.61425781 C-17.39321881 19.09925214 -17.4150286 16.58583593 -17.4296875 14.0703125 C-17.45235687 13.29620026 -17.47502625 12.52208801 -17.49838257 11.72451782 C-17.48406999 8.05498437 -17.00714902 5.76257613 -15.11767578 2.60107422 C-10.21466924 -0.46358443 -5.67128568 -0.08318185 0 0 Z " fill="#2387FE" transform="translate(128.90625,399.40625)"/>
<path d="M0 0 C1.73618591 -0.00006042 1.73618591 -0.00006042 3.50744629 -0.00012207 C5.95179684 0.00523347 8.39614694 0.02281732 10.84033203 0.05175781 C14.58028833 0.09359939 18.31844293 0.09282635 22.05859375 0.0859375 C24.43490834 0.09643055 26.81121365 0.10936926 29.1875 0.125 C30.3053186 0.12520142 31.42313721 0.12540283 32.5748291 0.12561035 C34.14170471 0.14947815 34.14170471 0.14947815 35.74023438 0.17382812 C37.11326721 0.18645691 37.11326721 0.18645691 38.51403809 0.19934082 C41.63433226 0.676399 43.54257635 1.76301627 46.09375 3.59375 C47.68381531 6.77388063 47.27792077 10.21345657 47.296875 13.70703125 C47.30257507 14.51359665 47.30827515 15.32016205 47.31414795 16.15116882 C47.32360195 17.86012458 47.33013352 19.5690986 47.33398438 21.27807617 C47.3436732 23.88558041 47.374685 26.49229078 47.40625 29.09960938 C47.41278185 30.76041199 47.41803161 32.42122024 47.421875 34.08203125 C47.4342218 34.85928055 47.4465686 35.63652985 47.45928955 36.43733215 C47.44069428 40.98490483 47.01725081 44.03271364 44.09375 47.59375 C41.10007982 48.59164006 39.07986991 48.731735 35.95141602 48.75488281 C34.90345352 48.76449036 33.85549103 48.7740979 32.77577209 48.78399658 C31.64449387 48.78824646 30.51321564 48.79249634 29.34765625 48.796875 C28.18499741 48.80257507 27.02233856 48.80827515 25.82444763 48.81414795 C23.36401276 48.8235985 20.90356524 48.83013215 18.44311523 48.83398438 C14.67474403 48.84370231 10.90691532 48.87473101 7.13867188 48.90625 C4.75000324 48.9127788 2.36133071 48.91802975 -0.02734375 48.921875 C-1.15659775 48.9342218 -2.28585175 48.9465686 -3.44932556 48.95928955 C-4.50044022 48.95628845 -5.55155487 48.95328735 -6.63452148 48.95019531 C-8.01993385 48.95566376 -8.01993385 48.95566376 -9.43333435 48.96124268 C-12.40517716 48.51960591 -13.75266834 47.66308457 -15.90625 45.59375 C-17.86446954 39.71909137 -17.21331286 32.99842829 -17.25634766 26.83398438 C-17.27291642 25.09393955 -17.30021889 23.35396305 -17.33837891 21.61425781 C-17.39321881 19.09925214 -17.4150286 16.58583593 -17.4296875 14.0703125 C-17.45235687 13.29620026 -17.47502625 12.52208801 -17.49838257 11.72451782 C-17.48406999 8.05498437 -17.00714902 5.76257613 -15.11767578 2.60107422 C-10.21466924 -0.46358443 -5.67128568 -0.08318185 0 0 Z " fill="#006CEF" transform="translate(240.90625,303.40625)"/>
<path d="M0 0 C1.73618591 -0.00006042 1.73618591 -0.00006042 3.50744629 -0.00012207 C5.95179684 0.00523347 8.39614694 0.02281732 10.84033203 0.05175781 C14.58028833 0.09359939 18.31844293 0.09282635 22.05859375 0.0859375 C24.43490834 0.09643055 26.81121365 0.10936926 29.1875 0.125 C30.3053186 0.12520142 31.42313721 0.12540283 32.5748291 0.12561035 C34.14170471 0.14947815 34.14170471 0.14947815 35.74023438 0.17382812 C37.11326721 0.18645691 37.11326721 0.18645691 38.51403809 0.19934082 C41.63433226 0.676399 43.54257635 1.76301627 46.09375 3.59375 C47.68381531 6.77388063 47.27792077 10.21345657 47.296875 13.70703125 C47.30257507 14.51359665 47.30827515 15.32016205 47.31414795 16.15116882 C47.32360195 17.86012458 47.33013352 19.5690986 47.33398438 21.27807617 C47.3436732 23.88558041 47.374685 26.49229078 47.40625 29.09960938 C47.41278185 30.76041199 47.41803161 32.42122024 47.421875 34.08203125 C47.4342218 34.85928055 47.4465686 35.63652985 47.45928955 36.43733215 C47.44069428 40.98490483 47.01725081 44.03271364 44.09375 47.59375 C41.10007982 48.59164006 39.07986991 48.731735 35.95141602 48.75488281 C34.90345352 48.76449036 33.85549103 48.7740979 32.77577209 48.78399658 C31.64449387 48.78824646 30.51321564 48.79249634 29.34765625 48.796875 C28.18499741 48.80257507 27.02233856 48.80827515 25.82444763 48.81414795 C23.36401276 48.8235985 20.90356524 48.83013215 18.44311523 48.83398438 C14.67474403 48.84370231 10.90691532 48.87473101 7.13867188 48.90625 C4.75000324 48.9127788 2.36133071 48.91802975 -0.02734375 48.921875 C-1.15659775 48.9342218 -2.28585175 48.9465686 -3.44932556 48.95928955 C-4.50044022 48.95628845 -5.55155487 48.95328735 -6.63452148 48.95019531 C-8.01993385 48.95566376 -8.01993385 48.95566376 -9.43333435 48.96124268 C-12.40517716 48.51960591 -13.75266834 47.66308457 -15.90625 45.59375 C-17.86446954 39.71909137 -17.21331286 32.99842829 -17.25634766 26.83398438 C-17.27291642 25.09393955 -17.30021889 23.35396305 -17.33837891 21.61425781 C-17.39321881 19.09925214 -17.4150286 16.58583593 -17.4296875 14.0703125 C-17.45235687 13.29620026 -17.47502625 12.52208801 -17.49838257 11.72451782 C-17.48406999 8.05498437 -17.00714902 5.76257613 -15.11767578 2.60107422 C-10.21466924 -0.46358443 -5.67128568 -0.08318185 0 0 Z " fill="#2387FE" transform="translate(128.90625,303.40625)"/>
<path d="M0 0 C1.73618591 -0.00006042 1.73618591 -0.00006042 3.50744629 -0.00012207 C5.95179684 0.00523347 8.39614694 0.02281732 10.84033203 0.05175781 C14.58028833 0.09359939 18.31844293 0.09282635 22.05859375 0.0859375 C24.43490834 0.09643055 26.81121365 0.10936926 29.1875 0.125 C30.3053186 0.12520142 31.42313721 0.12540283 32.5748291 0.12561035 C34.14170471 0.14947815 34.14170471 0.14947815 35.74023438 0.17382812 C37.11326721 0.18645691 37.11326721 0.18645691 38.51403809 0.19934082 C41.63433226 0.676399 43.54257635 1.76301627 46.09375 3.59375 C47.68381531 6.77388063 47.27792077 10.21345657 47.296875 13.70703125 C47.30257507 14.51359665 47.30827515 15.32016205 47.31414795 16.15116882 C47.32360195 17.86012458 47.33013352 19.5690986 47.33398438 21.27807617 C47.3436732 23.88558041 47.374685 26.49229078 47.40625 29.09960938 C47.41278185 30.76041199 47.41803161 32.42122024 47.421875 34.08203125 C47.4342218 34.85928055 47.4465686 35.63652985 47.45928955 36.43733215 C47.44069428 40.98490483 47.01725081 44.03271364 44.09375 47.59375 C41.10007982 48.59164006 39.07986991 48.731735 35.95141602 48.75488281 C34.90345352 48.76449036 33.85549103 48.7740979 32.77577209 48.78399658 C31.64449387 48.78824646 30.51321564 48.79249634 29.34765625 48.796875 C28.18499741 48.80257507 27.02233856 48.80827515 25.82444763 48.81414795 C23.36401276 48.8235985 20.90356524 48.83013215 18.44311523 48.83398438 C14.67474403 48.84370231 10.90691532 48.87473101 7.13867188 48.90625 C4.75000324 48.9127788 2.36133071 48.91802975 -0.02734375 48.921875 C-1.15659775 48.9342218 -2.28585175 48.9465686 -3.44932556 48.95928955 C-4.50044022 48.95628845 -5.55155487 48.95328735 -6.63452148 48.95019531 C-8.01993385 48.95566376 -8.01993385 48.95566376 -9.43333435 48.96124268 C-12.40517716 48.51960591 -13.75266834 47.66308457 -15.90625 45.59375 C-17.86446954 39.71909137 -17.21331286 32.99842829 -17.25634766 26.83398438 C-17.27291642 25.09393955 -17.30021889 23.35396305 -17.33837891 21.61425781 C-17.39321881 19.09925214 -17.4150286 16.58583593 -17.4296875 14.0703125 C-17.45235687 13.29620026 -17.47502625 12.52208801 -17.49838257 11.72451782 C-17.48406999 8.05498437 -17.00714902 5.76257613 -15.11767578 2.60107422 C-10.21466924 -0.46358443 -5.67128568 -0.08318185 0 0 Z " fill="#006CEF" transform="translate(352.90625,207.40625)"/>
<path d="M0 0 C1.73618591 -0.00006042 1.73618591 -0.00006042 3.50744629 -0.00012207 C5.95179684 0.00523347 8.39614694 0.02281732 10.84033203 0.05175781 C14.58028833 0.09359939 18.31844293 0.09282635 22.05859375 0.0859375 C24.43490834 0.09643055 26.81121365 0.10936926 29.1875 0.125 C30.3053186 0.12520142 31.42313721 0.12540283 32.5748291 0.12561035 C34.14170471 0.14947815 34.14170471 0.14947815 35.74023438 0.17382812 C37.11326721 0.18645691 37.11326721 0.18645691 38.51403809 0.19934082 C41.63433226 0.676399 43.54257635 1.76301627 46.09375 3.59375 C47.68381531 6.77388063 47.27792077 10.21345657 47.296875 13.70703125 C47.30257507 14.51359665 47.30827515 15.32016205 47.31414795 16.15116882 C47.32360195 17.86012458 47.33013352 19.5690986 47.33398438 21.27807617 C47.3436732 23.88558041 47.374685 26.49229078 47.40625 29.09960938 C47.41278185 30.76041199 47.41803161 32.42122024 47.421875 34.08203125 C47.4342218 34.85928055 47.4465686 35.63652985 47.45928955 36.43733215 C47.44069428 40.98490483 47.01725081 44.03271364 44.09375 47.59375 C41.10007982 48.59164006 39.07986991 48.731735 35.95141602 48.75488281 C34.90345352 48.76449036 33.85549103 48.7740979 32.77577209 48.78399658 C31.64449387 48.78824646 30.51321564 48.79249634 29.34765625 48.796875 C28.18499741 48.80257507 27.02233856 48.80827515 25.82444763 48.81414795 C23.36401276 48.8235985 20.90356524 48.83013215 18.44311523 48.83398438 C14.67474403 48.84370231 10.90691532 48.87473101 7.13867188 48.90625 C4.75000324 48.9127788 2.36133071 48.91802975 -0.02734375 48.921875 C-1.15659775 48.9342218 -2.28585175 48.9465686 -3.44932556 48.95928955 C-4.50044022 48.95628845 -5.55155487 48.95328735 -6.63452148 48.95019531 C-8.01993385 48.95566376 -8.01993385 48.95566376 -9.43333435 48.96124268 C-12.40517716 48.51960591 -13.75266834 47.66308457 -15.90625 45.59375 C-17.86446954 39.71909137 -17.21331286 32.99842829 -17.25634766 26.83398438 C-17.27291642 25.09393955 -17.30021889 23.35396305 -17.33837891 21.61425781 C-17.39321881 19.09925214 -17.4150286 16.58583593 -17.4296875 14.0703125 C-17.45235687 13.29620026 -17.47502625 12.52208801 -17.49838257 11.72451782 C-17.48406999 8.05498437 -17.00714902 5.76257613 -15.11767578 2.60107422 C-10.21466924 -0.46358443 -5.67128568 -0.08318185 0 0 Z " fill="#006CEF" transform="translate(240.90625,207.40625)"/>
<path d="M0 0 C1.73618591 -0.00006042 1.73618591 -0.00006042 3.50744629 -0.00012207 C5.95179684 0.00523347 8.39614694 0.02281732 10.84033203 0.05175781 C14.58028833 0.09359939 18.31844293 0.09282635 22.05859375 0.0859375 C24.43490834 0.09643055 26.81121365 0.10936926 29.1875 0.125 C30.3053186 0.12520142 31.42313721 0.12540283 32.5748291 0.12561035 C34.14170471 0.14947815 34.14170471 0.14947815 35.74023438 0.17382812 C37.11326721 0.18645691 37.11326721 0.18645691 38.51403809 0.19934082 C41.63433226 0.676399 43.54257635 1.76301627 46.09375 3.59375 C47.68381531 6.77388063 47.27792077 10.21345657 47.296875 13.70703125 C47.30257507 14.51359665 47.30827515 15.32016205 47.31414795 16.15116882 C47.32360195 17.86012458 47.33013352 19.5690986 47.33398438 21.27807617 C47.3436732 23.88558041 47.374685 26.49229078 47.40625 29.09960938 C47.41278185 30.76041199 47.41803161 32.42122024 47.421875 34.08203125 C47.4342218 34.85928055 47.4465686 35.63652985 47.45928955 36.43733215 C47.44069428 40.98490483 47.01725081 44.03271364 44.09375 47.59375 C41.10007982 48.59164006 39.07986991 48.731735 35.95141602 48.75488281 C34.90345352 48.76449036 33.85549103 48.7740979 32.77577209 48.78399658 C31.64449387 48.78824646 30.51321564 48.79249634 29.34765625 48.796875 C28.18499741 48.80257507 27.02233856 48.80827515 25.82444763 48.81414795 C23.36401276 48.8235985 20.90356524 48.83013215 18.44311523 48.83398438 C14.67474403 48.84370231 10.90691532 48.87473101 7.13867188 48.90625 C4.75000324 48.9127788 2.36133071 48.91802975 -0.02734375 48.921875 C-1.15659775 48.9342218 -2.28585175 48.9465686 -3.44932556 48.95928955 C-4.50044022 48.95628845 -5.55155487 48.95328735 -6.63452148 48.95019531 C-8.01993385 48.95566376 -8.01993385 48.95566376 -9.43333435 48.96124268 C-12.40517716 48.51960591 -13.75266834 47.66308457 -15.90625 45.59375 C-17.86446954 39.71909137 -17.21331286 32.99842829 -17.25634766 26.83398438 C-17.27291642 25.09393955 -17.30021889 23.35396305 -17.33837891 21.61425781 C-17.39321881 19.09925214 -17.4150286 16.58583593 -17.4296875 14.0703125 C-17.45235687 13.29620026 -17.47502625 12.52208801 -17.49838257 11.72451782 C-17.48406999 8.05498437 -17.00714902 5.76257613 -15.11767578 2.60107422 C-10.21466924 -0.46358443 -5.67128568 -0.08318185 0 0 Z " fill="#2387FE" transform="translate(128.90625,207.40625)"/>
<path d="M0 0 C6.66161833 3.77224171 11.59471942 8.73969579 13.9453125 16.1015625 C14.50819763 20.59342923 14.5045814 25.01733959 14.4453125 29.5390625 C14.46078125 30.71533203 14.47625 31.89160156 14.4921875 33.10351562 C14.45422162 41.5936362 13.31285776 48.02440511 7.83203125 54.66015625 C1.04859183 60.45559916 -4.60264614 62.66022556 -13.57421875 62.40234375 C-21.13756419 61.48521367 -25.49956997 57.03024084 -30.390625 51.515625 C-34.98251366 44.85415272 -34.42135835 37.48932601 -34.4296875 29.7265625 C-34.45417969 28.53289062 -34.47867187 27.33921875 -34.50390625 26.109375 C-34.53206083 17.62546304 -33.54481576 12.03498076 -27.87109375 5.640625 C-26.75541016 4.69316406 -26.75541016 4.69316406 -25.6171875 3.7265625 C-24.87597656 3.07945313 -24.13476562 2.43234375 -23.37109375 1.765625 C-16.42365906 -3.22528087 -7.75505918 -3.35947908 0 0 Z " fill="#25201F" transform="translate(378.0546875,73.8984375)"/>
<path d="M0 0 C4.18421805 0.87171209 5.42961969 2.20639419 8 5.625 C8.68745025 9.14220473 8.60807733 12.55353546 8.5 16.125 C8.50386719 17.53072266 8.50386719 17.53072266 8.5078125 18.96484375 C8.43739363 23.92937377 8.31960315 27.65449427 5 31.625 C2.19084526 33.02957737 0.11189466 32.87395157 -3 32.625 C-6.1359157 30.84515595 -6.84102736 30.10191793 -8 26.625 C-8.3042547 23.17190178 -8.3234943 19.71492872 -8.375 16.25 C-8.41238281 15.30382812 -8.44976562 14.35765625 -8.48828125 13.3828125 C-8.54802825 8.65616069 -8.56587514 6.38202359 -5.6640625 2.5 C-3 0.625 -3 0.625 0 0 Z " fill="#FAC900" transform="translate(368,87.375)"/>
</svg>
